%FSLAX34Y34*%
G04 Gerber Fmt 3.4, Leading zero omitted, Abs format*
G04 (created by PCBNEW (2014-03-23 BZR 4768)-product) date Wed 26 Mar 2014 09:50:02 PM CET*
%MOIN*%
G01*
G70*
G90*
G04 APERTURE LIST*
%ADD10C,0.006000*%
%ADD11O,0.098425X0.216535*%
%ADD12R,0.080000X0.060000*%
%ADD13R,0.055000X0.035000*%
%ADD14R,0.035000X0.055000*%
%ADD15R,0.020000X0.045000*%
%ADD16R,0.031496X0.023622*%
%ADD17R,0.041339X0.023622*%
%ADD18R,0.216500X0.078700*%
%ADD19R,0.080000X0.068000*%
%ADD20O,0.080000X0.068000*%
%ADD21R,0.068000X0.068000*%
%ADD22O,0.068000X0.068000*%
%ADD23C,0.040000*%
%ADD24C,0.030000*%
%ADD25C,0.010000*%
%ADD26C,0.020000*%
%ADD27C,0.019685*%
G04 APERTURE END LIST*
G54D10*
G54D11*
X50500Y-31400D03*
X50500Y-37000D03*
G54D12*
X46300Y-33550D03*
X46300Y-34850D03*
X50500Y-33550D03*
X50500Y-34850D03*
G54D13*
X52800Y-31975D03*
X52800Y-31225D03*
G54D14*
X58175Y-29100D03*
X57425Y-29100D03*
X58175Y-34500D03*
X57425Y-34500D03*
X53425Y-34500D03*
X54175Y-34500D03*
G54D13*
X60500Y-34725D03*
X60500Y-35475D03*
X52400Y-41975D03*
X52400Y-41225D03*
G54D15*
X54300Y-32700D03*
X54800Y-32700D03*
X55300Y-32700D03*
X55800Y-32700D03*
X56300Y-32700D03*
X56800Y-32700D03*
X57300Y-32700D03*
X57300Y-30600D03*
X56800Y-30600D03*
X56300Y-30600D03*
X55800Y-30600D03*
X55300Y-30600D03*
X54800Y-30600D03*
X54300Y-30600D03*
G54D10*
G36*
X48733Y-32503D02*
X47866Y-32503D01*
X47512Y-32031D01*
X49087Y-32031D01*
X48733Y-32503D01*
X48733Y-32503D01*
G37*
G36*
X49087Y-30968D02*
X47512Y-30968D01*
X47866Y-30496D01*
X48733Y-30496D01*
X49087Y-30968D01*
X49087Y-30968D01*
G37*
G54D16*
X47670Y-31913D03*
X48929Y-31913D03*
X47670Y-31086D03*
X48929Y-31086D03*
G54D10*
G36*
X48064Y-32031D02*
X47827Y-32268D01*
X47590Y-32031D01*
X47827Y-31794D01*
X48064Y-32031D01*
X48064Y-32031D01*
G37*
G36*
X49009Y-32031D02*
X48772Y-32268D01*
X48535Y-32031D01*
X48772Y-31794D01*
X49009Y-32031D01*
X49009Y-32031D01*
G37*
G36*
X48064Y-30968D02*
X47827Y-31205D01*
X47590Y-30968D01*
X47827Y-30731D01*
X48064Y-30968D01*
X48064Y-30968D01*
G37*
G36*
X49009Y-30968D02*
X48772Y-31205D01*
X48535Y-30968D01*
X48772Y-30731D01*
X49009Y-30968D01*
X49009Y-30968D01*
G37*
G54D14*
X60175Y-29100D03*
X59425Y-29100D03*
X55425Y-34200D03*
X56175Y-34200D03*
G54D13*
X52400Y-39775D03*
X52400Y-39025D03*
G54D17*
X47868Y-33825D03*
X47868Y-34200D03*
X47868Y-34574D03*
X48931Y-34574D03*
X48931Y-33825D03*
G54D18*
X57650Y-36600D03*
X53950Y-36600D03*
G54D14*
X55425Y-29100D03*
X56175Y-29100D03*
G54D19*
X54000Y-39000D03*
G54D20*
X54000Y-40000D03*
X54000Y-41000D03*
X54000Y-42000D03*
G54D21*
X69600Y-33200D03*
G54D22*
X69600Y-34200D03*
X69600Y-35200D03*
X70600Y-35200D03*
X70600Y-34200D03*
X70600Y-33200D03*
G54D14*
X54175Y-29100D03*
X53425Y-29100D03*
G54D21*
X62100Y-35600D03*
G54D22*
X63100Y-35600D03*
X64100Y-35600D03*
X65100Y-35600D03*
X65100Y-34600D03*
X64100Y-34600D03*
X63100Y-34600D03*
X62100Y-34600D03*
G54D23*
X52800Y-29100D03*
X47350Y-34700D03*
X47350Y-33800D03*
X51500Y-34850D03*
X55800Y-35000D03*
X56800Y-29100D03*
X54300Y-30000D03*
X62100Y-32200D03*
G54D24*
X54200Y-31600D03*
X53400Y-32400D03*
X64100Y-36800D03*
X63600Y-33500D03*
X54700Y-31600D03*
X53900Y-32400D03*
G54D25*
X52800Y-29100D02*
X53425Y-29100D01*
G54D26*
X48300Y-30732D02*
X47367Y-30732D01*
X47367Y-30732D02*
X46300Y-31800D01*
X46300Y-31800D02*
X46300Y-33550D01*
X50500Y-31400D02*
X49800Y-31400D01*
X49132Y-30732D02*
X48300Y-30732D01*
X49800Y-31400D02*
X49132Y-30732D01*
X46300Y-33550D02*
X47050Y-33550D01*
X47050Y-33550D02*
X47325Y-33825D01*
X47868Y-34574D02*
X47475Y-34574D01*
X47475Y-34574D02*
X47350Y-34700D01*
X47350Y-33800D02*
X47350Y-33825D01*
X47350Y-33825D02*
X47325Y-33825D01*
X47325Y-33825D02*
X47868Y-33825D01*
G54D27*
X50500Y-31400D02*
X50500Y-30700D01*
G54D26*
X50500Y-34850D02*
X51500Y-34850D01*
X54175Y-34500D02*
X54600Y-34500D01*
X54600Y-34500D02*
X55100Y-35000D01*
X55100Y-35000D02*
X55800Y-35000D01*
X57000Y-34500D02*
X57425Y-34500D01*
X55800Y-35000D02*
X56500Y-35000D01*
X56500Y-35000D02*
X57000Y-34500D01*
X50500Y-37000D02*
X47400Y-37000D01*
X47400Y-37000D02*
X46300Y-35900D01*
X46300Y-35900D02*
X46300Y-34850D01*
X57425Y-29100D02*
X56800Y-29100D01*
X62100Y-35600D02*
X60625Y-35600D01*
G54D27*
X60625Y-35600D02*
X60500Y-35475D01*
G54D26*
X47868Y-34200D02*
X48200Y-34200D01*
X48200Y-34200D02*
X48400Y-34400D01*
X48400Y-34400D02*
X48400Y-34800D01*
X48400Y-34800D02*
X48600Y-35000D01*
X48600Y-35000D02*
X50250Y-35000D01*
G54D27*
X50250Y-35000D02*
X50500Y-34850D01*
X46300Y-34850D02*
X46650Y-34850D01*
G54D26*
X46650Y-34850D02*
X47300Y-34200D01*
X47300Y-34200D02*
X47868Y-34200D01*
G54D27*
X61975Y-35475D02*
X62100Y-35600D01*
G54D26*
X56175Y-29100D02*
X56800Y-29100D01*
X54300Y-30600D02*
X54300Y-30000D01*
X54000Y-42000D02*
X52425Y-42000D01*
G54D27*
X52425Y-42000D02*
X52400Y-41975D01*
X61975Y-35475D02*
X62100Y-35600D01*
G54D26*
X52800Y-31225D02*
X54075Y-31225D01*
X54075Y-31225D02*
X54300Y-31000D01*
X54300Y-31000D02*
X54300Y-30600D01*
X60175Y-29100D02*
X61000Y-29100D01*
X62100Y-32200D02*
X61400Y-32200D01*
X51800Y-29200D02*
X51800Y-32000D01*
X52600Y-28400D02*
X51800Y-29200D01*
X60000Y-28400D02*
X52600Y-28400D01*
X60700Y-28400D02*
X60000Y-28400D01*
X61000Y-28700D02*
X60700Y-28400D01*
X61000Y-31800D02*
X61000Y-29100D01*
X61000Y-29100D02*
X61000Y-28700D01*
X61400Y-32200D02*
X61000Y-31800D01*
X62100Y-32200D02*
X63400Y-32200D01*
X63400Y-32200D02*
X64400Y-33200D01*
X64400Y-33200D02*
X68500Y-33200D01*
X68500Y-33200D02*
X69300Y-32400D01*
X69300Y-32400D02*
X70100Y-32400D01*
X70100Y-32400D02*
X70600Y-32900D01*
G54D27*
X70600Y-32900D02*
X70600Y-33200D01*
G54D26*
X62100Y-32200D02*
X62300Y-32200D01*
X52800Y-31975D02*
X54075Y-31975D01*
X54075Y-31975D02*
X54300Y-32200D01*
X54300Y-32200D02*
X54300Y-32700D01*
X51800Y-32000D02*
X52775Y-32000D01*
G54D27*
X52775Y-32000D02*
X52800Y-31975D01*
G54D26*
X51250Y-33550D02*
X50500Y-33550D01*
X51800Y-33000D02*
X51250Y-33550D01*
X51800Y-32000D02*
X51800Y-33000D01*
X62100Y-34600D02*
X60625Y-34600D01*
G54D27*
X60625Y-34600D02*
X60500Y-34725D01*
G54D26*
X48931Y-34574D02*
X49325Y-34574D01*
X49850Y-33550D02*
X50500Y-33550D01*
X49600Y-33800D02*
X49850Y-33550D01*
X49600Y-34300D02*
X49600Y-33800D01*
X49325Y-34574D02*
X49600Y-34300D01*
G54D27*
X61975Y-34725D02*
X62100Y-34600D01*
X61975Y-34725D02*
X62100Y-34600D01*
G54D25*
X58800Y-29100D02*
X59425Y-29100D01*
X58800Y-29100D02*
X58800Y-29650D01*
X55800Y-31700D02*
X56050Y-31450D01*
X56050Y-31450D02*
X56050Y-30200D01*
X56050Y-30200D02*
X56350Y-29900D01*
X56350Y-29900D02*
X57375Y-29900D01*
X55800Y-31700D02*
X55800Y-32700D01*
X58550Y-29900D02*
X57375Y-29900D01*
X58800Y-29650D02*
X58550Y-29900D01*
X58175Y-29100D02*
X58800Y-29100D01*
X55800Y-32700D02*
X55800Y-33050D01*
X66800Y-35200D02*
X69600Y-35200D01*
X64850Y-37150D02*
X66800Y-35200D01*
X60350Y-37150D02*
X64850Y-37150D01*
X59250Y-36050D02*
X60350Y-37150D01*
X59250Y-34150D02*
X59250Y-36050D01*
X58700Y-33600D02*
X59250Y-34150D01*
X56350Y-33600D02*
X58700Y-33600D01*
X55800Y-33050D02*
X56350Y-33600D01*
X58175Y-34500D02*
X58175Y-36075D01*
X58175Y-36075D02*
X57650Y-36600D01*
X56175Y-34200D02*
X56700Y-34200D01*
X56700Y-34200D02*
X57000Y-33900D01*
X57000Y-33900D02*
X58000Y-33900D01*
X58000Y-33900D02*
X58175Y-34075D01*
X58175Y-34075D02*
X58175Y-34500D01*
X55300Y-32700D02*
X55300Y-33000D01*
X55300Y-33000D02*
X56175Y-33875D01*
X56175Y-33875D02*
X56175Y-34200D01*
X55425Y-34200D02*
X54900Y-34200D01*
X54900Y-34200D02*
X54600Y-33900D01*
X54600Y-33900D02*
X53600Y-33900D01*
X53600Y-33900D02*
X53425Y-34075D01*
X53425Y-34075D02*
X53425Y-34500D01*
X53425Y-34500D02*
X53425Y-36075D01*
X53425Y-36075D02*
X53950Y-36600D01*
X54800Y-32700D02*
X54800Y-33100D01*
X54800Y-33100D02*
X55425Y-33725D01*
X55425Y-33725D02*
X55425Y-34200D01*
X52400Y-39025D02*
X51900Y-39025D01*
X51900Y-39025D02*
X51900Y-39000D01*
X54200Y-31600D02*
X54700Y-31100D01*
X54700Y-31100D02*
X55200Y-31100D01*
X55200Y-31100D02*
X55300Y-31000D01*
X55300Y-31000D02*
X55300Y-30600D01*
X51900Y-39000D02*
X51900Y-33900D01*
X51900Y-33900D02*
X53400Y-32400D01*
X52125Y-41225D02*
X51900Y-41000D01*
X51900Y-41000D02*
X51900Y-39000D01*
X54000Y-39000D02*
X52425Y-39000D01*
X56300Y-32700D02*
X56300Y-33100D01*
X56300Y-33100D02*
X56500Y-33300D01*
X56500Y-33300D02*
X58900Y-33300D01*
X58900Y-33300D02*
X59550Y-33950D01*
X59550Y-33950D02*
X59550Y-35850D01*
X59550Y-35850D02*
X60500Y-36800D01*
X60500Y-36800D02*
X64100Y-36800D01*
X56800Y-32700D02*
X56800Y-32200D01*
X56800Y-32200D02*
X57100Y-31900D01*
X57100Y-31900D02*
X58500Y-31900D01*
X58500Y-31900D02*
X60500Y-33900D01*
X60500Y-33900D02*
X62400Y-33900D01*
X62400Y-33900D02*
X63100Y-34600D01*
X57500Y-32300D02*
X57350Y-32300D01*
X57350Y-32300D02*
X57300Y-32350D01*
X57300Y-32350D02*
X57300Y-32700D01*
X58400Y-32300D02*
X59850Y-33750D01*
X59850Y-33750D02*
X59850Y-35650D01*
X59850Y-35650D02*
X60700Y-36500D01*
X60700Y-36500D02*
X64700Y-36500D01*
X64700Y-36500D02*
X65100Y-36100D01*
X65100Y-35600D02*
X65100Y-36100D01*
X57500Y-32300D02*
X57900Y-32300D01*
X57900Y-32300D02*
X58400Y-32300D01*
X70600Y-34200D02*
X70100Y-34700D01*
X65700Y-35600D02*
X65100Y-35600D01*
X66600Y-34700D02*
X65700Y-35600D01*
X70100Y-34700D02*
X66600Y-34700D01*
X57400Y-30700D02*
X58800Y-30700D01*
X64100Y-33500D02*
X64100Y-34600D01*
X63300Y-32700D02*
X64100Y-33500D01*
X60800Y-32700D02*
X63300Y-32700D01*
X58800Y-30700D02*
X60800Y-32700D01*
X64200Y-34600D02*
X65100Y-33700D01*
X69100Y-33700D02*
X69600Y-33200D01*
X65100Y-33700D02*
X69100Y-33700D01*
X56800Y-30600D02*
X56800Y-31000D01*
X56800Y-31000D02*
X56900Y-31100D01*
X56900Y-31100D02*
X58700Y-31100D01*
X58700Y-31100D02*
X60700Y-33100D01*
X60700Y-33100D02*
X63200Y-33100D01*
X63200Y-33100D02*
X63600Y-33500D01*
X64100Y-35600D02*
X64600Y-35100D01*
X64600Y-35100D02*
X65500Y-35100D01*
X65500Y-35100D02*
X66400Y-34200D01*
X66400Y-34200D02*
X69600Y-34200D01*
X63100Y-35600D02*
X63600Y-35100D01*
X63600Y-35100D02*
X63600Y-34000D01*
X63600Y-34000D02*
X63100Y-33500D01*
X63100Y-33500D02*
X60600Y-33500D01*
X60600Y-33500D02*
X58600Y-31500D01*
X58600Y-31500D02*
X56594Y-31505D01*
X56594Y-31505D02*
X56300Y-31200D01*
X56300Y-31200D02*
X56300Y-30600D01*
X54700Y-31600D02*
X54800Y-31500D01*
X54800Y-31500D02*
X55500Y-31500D01*
X55500Y-31500D02*
X55800Y-31200D01*
X55800Y-31200D02*
X55800Y-30600D01*
X54500Y-40000D02*
X54800Y-39700D01*
X52300Y-38000D02*
X52300Y-34000D01*
X52300Y-34000D02*
X53900Y-32400D01*
X54000Y-40000D02*
X54500Y-40000D01*
X52600Y-38300D02*
X52300Y-38000D01*
X54500Y-38300D02*
X52600Y-38300D01*
X54800Y-38600D02*
X54500Y-38300D01*
X54800Y-39700D02*
X54800Y-38600D01*
X54000Y-40000D02*
X52625Y-40000D01*
X52625Y-40000D02*
X52400Y-39775D01*
G54D27*
X48300Y-32267D02*
X48300Y-32800D01*
G54D26*
X48300Y-32800D02*
X48931Y-33431D01*
G54D27*
X48931Y-33431D02*
X48931Y-33825D01*
X48300Y-32267D02*
X48024Y-32267D01*
X48024Y-32267D02*
X47670Y-31913D01*
X48300Y-32267D02*
X48575Y-32267D01*
X48575Y-32267D02*
X48929Y-31913D01*
X48929Y-31913D02*
X48575Y-32267D01*
G54D25*
X54800Y-29100D02*
X54175Y-29100D01*
X54800Y-30600D02*
X54800Y-29100D01*
X54800Y-29100D02*
X55425Y-29100D01*
M02*
