%FSLAX34Y34*%
G04 Gerber Fmt 3.4, Leading zero omitted, Abs format*
G04 (created by PCBNEW (2014-03-23 BZR 4768)-product) date Wed 26 Mar 2014 09:50:02 PM CET*
%MOIN*%
G01*
G70*
G90*
G04 APERTURE LIST*
%ADD10C,0.006000*%
%ADD11O,0.118425X0.236535*%
%ADD12R,0.100000X0.080000*%
%ADD13R,0.075000X0.055000*%
%ADD14R,0.055000X0.075000*%
%ADD15R,0.040000X0.065000*%
%ADD16R,0.051496X0.043622*%
%ADD17R,0.061339X0.043622*%
%ADD18R,0.236500X0.098700*%
%ADD19R,0.100000X0.088000*%
%ADD20O,0.100000X0.088000*%
%ADD21R,0.088000X0.088000*%
%ADD22O,0.088000X0.088000*%
G04 APERTURE END LIST*
G54D10*
G54D11*
X50500Y-31400D03*
X50500Y-37000D03*
G54D12*
X46300Y-33550D03*
X46300Y-34850D03*
X50500Y-33550D03*
X50500Y-34850D03*
G54D13*
X52800Y-31975D03*
X52800Y-31225D03*
G54D14*
X58175Y-29100D03*
X57425Y-29100D03*
X58175Y-34500D03*
X57425Y-34500D03*
X53425Y-34500D03*
X54175Y-34500D03*
G54D13*
X60500Y-34725D03*
X60500Y-35475D03*
X52400Y-41975D03*
X52400Y-41225D03*
G54D15*
X54300Y-32700D03*
X54800Y-32700D03*
X55300Y-32700D03*
X55800Y-32700D03*
X56300Y-32700D03*
X56800Y-32700D03*
X57300Y-32700D03*
X57300Y-30600D03*
X56800Y-30600D03*
X56300Y-30600D03*
X55800Y-30600D03*
X55300Y-30600D03*
X54800Y-30600D03*
X54300Y-30600D03*
G54D10*
G36*
X48833Y-32603D02*
X47766Y-32603D01*
X47412Y-31931D01*
X49187Y-31931D01*
X48833Y-32603D01*
X48833Y-32603D01*
G37*
G36*
X49187Y-31068D02*
X47412Y-31068D01*
X47766Y-30396D01*
X48833Y-30396D01*
X49187Y-31068D01*
X49187Y-31068D01*
G37*
G54D16*
X47670Y-31913D03*
X48929Y-31913D03*
X47670Y-31086D03*
X48929Y-31086D03*
G54D10*
G36*
X48205Y-32031D02*
X47827Y-32409D01*
X47449Y-32031D01*
X47827Y-31653D01*
X48205Y-32031D01*
X48205Y-32031D01*
G37*
G36*
X49150Y-32031D02*
X48772Y-32409D01*
X48394Y-32031D01*
X48772Y-31653D01*
X49150Y-32031D01*
X49150Y-32031D01*
G37*
G36*
X48205Y-30968D02*
X47827Y-31346D01*
X47449Y-30968D01*
X47827Y-30590D01*
X48205Y-30968D01*
X48205Y-30968D01*
G37*
G36*
X49150Y-30968D02*
X48772Y-31346D01*
X48394Y-30968D01*
X48772Y-30590D01*
X49150Y-30968D01*
X49150Y-30968D01*
G37*
G54D14*
X60175Y-29100D03*
X59425Y-29100D03*
X55425Y-34200D03*
X56175Y-34200D03*
G54D13*
X52400Y-39775D03*
X52400Y-39025D03*
G54D17*
X47868Y-33825D03*
X47868Y-34200D03*
X47868Y-34574D03*
X48931Y-34574D03*
X48931Y-33825D03*
G54D18*
X57650Y-36600D03*
X53950Y-36600D03*
G54D14*
X55425Y-29100D03*
X56175Y-29100D03*
G54D19*
X54000Y-39000D03*
G54D20*
X54000Y-40000D03*
X54000Y-41000D03*
X54000Y-42000D03*
G54D21*
X69600Y-33200D03*
G54D22*
X69600Y-34200D03*
X69600Y-35200D03*
X70600Y-35200D03*
X70600Y-34200D03*
X70600Y-33200D03*
G54D14*
X54175Y-29100D03*
X53425Y-29100D03*
G54D21*
X62100Y-35600D03*
G54D22*
X63100Y-35600D03*
X64100Y-35600D03*
X65100Y-35600D03*
X65100Y-34600D03*
X64100Y-34600D03*
X63100Y-34600D03*
X62100Y-34600D03*
M02*
