%FSLAX34Y34*%
G04 Gerber Fmt 3.4, Leading zero omitted, Abs format*
G04 (created by PCBNEW (2014-03-23 BZR 4768)-product) date Wed 26 Mar 2014 09:50:02 PM CET*
%MOIN*%
G01*
G70*
G90*
G04 APERTURE LIST*
%ADD10C,0.006000*%
%ADD11O,0.098425X0.216535*%
%ADD12R,0.080000X0.068000*%
%ADD13O,0.080000X0.068000*%
%ADD14R,0.068000X0.068000*%
%ADD15O,0.068000X0.068000*%
%ADD16C,0.040000*%
%ADD17C,0.030000*%
%ADD18C,0.010000*%
%ADD19C,0.020000*%
G04 APERTURE END LIST*
G54D10*
G54D11*
X50500Y-31400D03*
X50500Y-37000D03*
G54D12*
X54000Y-39000D03*
G54D13*
X54000Y-40000D03*
X54000Y-41000D03*
X54000Y-42000D03*
G54D14*
X69600Y-33200D03*
G54D15*
X69600Y-34200D03*
X69600Y-35200D03*
X70600Y-35200D03*
X70600Y-34200D03*
X70600Y-33200D03*
G54D14*
X62100Y-35600D03*
G54D15*
X63100Y-35600D03*
X64100Y-35600D03*
X65100Y-35600D03*
X65100Y-34600D03*
X64100Y-34600D03*
X63100Y-34600D03*
X62100Y-34600D03*
G54D16*
X52800Y-29100D03*
X47350Y-34700D03*
X47350Y-33800D03*
X51500Y-34850D03*
X55800Y-35000D03*
X56800Y-29100D03*
X54300Y-30000D03*
X62100Y-32200D03*
G54D17*
X54200Y-31600D03*
X53400Y-32400D03*
X64100Y-36800D03*
X63600Y-33500D03*
X54700Y-31600D03*
X53900Y-32400D03*
G54D18*
X50500Y-31400D02*
X52800Y-29100D01*
G54D19*
X47350Y-34700D02*
X47350Y-33800D01*
X51500Y-34850D02*
X52150Y-34200D01*
X52150Y-34200D02*
X52900Y-34200D01*
X55800Y-35000D02*
X55800Y-34200D01*
X54000Y-42000D02*
X52900Y-40900D01*
X52900Y-40900D02*
X52900Y-34200D01*
X52900Y-34200D02*
X52900Y-33600D01*
X52900Y-33600D02*
X51800Y-32500D01*
X51800Y-32500D02*
X51800Y-30800D01*
X51800Y-30800D02*
X52600Y-30000D01*
X52600Y-30000D02*
X54300Y-30000D01*
X55900Y-30000D02*
X54300Y-30000D01*
X56800Y-29100D02*
X55900Y-30000D01*
X62100Y-35600D02*
X62100Y-37400D01*
X62100Y-37400D02*
X62400Y-37700D01*
X68100Y-37700D02*
X70300Y-37700D01*
X62400Y-37700D02*
X68100Y-37700D01*
X70300Y-37700D02*
X70600Y-37400D01*
X70600Y-37400D02*
X70600Y-35200D01*
X52900Y-34200D02*
X55800Y-34200D01*
X55800Y-34200D02*
X58700Y-34200D01*
X58700Y-34200D02*
X60100Y-35600D01*
X60100Y-35600D02*
X62100Y-35600D01*
X62100Y-34600D02*
X62100Y-32200D01*
G54D18*
X53400Y-32400D02*
X54200Y-31600D01*
X64100Y-36800D02*
X64600Y-36300D01*
X64600Y-36300D02*
X64600Y-35100D01*
X64600Y-35100D02*
X65100Y-34600D01*
X63600Y-33500D02*
X63600Y-35100D01*
X63600Y-35100D02*
X64100Y-35600D01*
X53900Y-32400D02*
X54700Y-31600D01*
G54D10*
G36*
X72525Y-43125D02*
X71365Y-43125D01*
X71365Y-42300D01*
X71359Y-42273D01*
X71359Y-42246D01*
X71288Y-41886D01*
X71288Y-41886D01*
X71247Y-41787D01*
X71247Y-41787D01*
X71172Y-41676D01*
X71172Y-35341D01*
X71172Y-35058D01*
X71075Y-34850D01*
X70905Y-34695D01*
X70857Y-34675D01*
X70981Y-34592D01*
X71098Y-34417D01*
X71140Y-34210D01*
X71140Y-34189D01*
X71098Y-33982D01*
X70981Y-33807D01*
X70820Y-33700D01*
X70981Y-33592D01*
X71098Y-33417D01*
X71140Y-33210D01*
X71140Y-33189D01*
X71098Y-32982D01*
X70981Y-32807D01*
X70806Y-32690D01*
X70600Y-32649D01*
X70393Y-32690D01*
X70218Y-32807D01*
X70140Y-32924D01*
X70140Y-32820D01*
X70109Y-32746D01*
X70053Y-32690D01*
X69979Y-32660D01*
X69900Y-32660D01*
X69220Y-32660D01*
X69146Y-32690D01*
X69090Y-32746D01*
X69060Y-32820D01*
X69060Y-32899D01*
X69060Y-33579D01*
X69090Y-33653D01*
X69146Y-33709D01*
X69220Y-33740D01*
X69299Y-33740D01*
X69319Y-33740D01*
X69218Y-33807D01*
X69101Y-33982D01*
X69060Y-34189D01*
X69060Y-34210D01*
X69101Y-34417D01*
X69218Y-34592D01*
X69379Y-34700D01*
X69218Y-34807D01*
X69101Y-34982D01*
X69060Y-35189D01*
X69060Y-35210D01*
X69101Y-35417D01*
X69218Y-35592D01*
X69393Y-35709D01*
X69600Y-35750D01*
X69806Y-35709D01*
X69981Y-35592D01*
X70077Y-35449D01*
X70124Y-35549D01*
X70294Y-35704D01*
X70458Y-35772D01*
X70550Y-35725D01*
X70550Y-35250D01*
X70542Y-35250D01*
X70542Y-35150D01*
X70550Y-35150D01*
X70550Y-35142D01*
X70650Y-35142D01*
X70650Y-35150D01*
X71125Y-35150D01*
X71172Y-35058D01*
X71172Y-35341D01*
X71125Y-35250D01*
X70650Y-35250D01*
X70650Y-35725D01*
X70741Y-35772D01*
X70905Y-35704D01*
X71075Y-35549D01*
X71172Y-35341D01*
X71172Y-41676D01*
X71043Y-41482D01*
X70967Y-41406D01*
X70967Y-41406D01*
X70662Y-41202D01*
X70662Y-41202D01*
X70563Y-41161D01*
X70203Y-41090D01*
X70096Y-41090D01*
X70096Y-41090D01*
X69736Y-41161D01*
X69637Y-41202D01*
X69637Y-41202D01*
X69332Y-41406D01*
X69256Y-41482D01*
X69052Y-41787D01*
X69052Y-41787D01*
X69011Y-41886D01*
X68940Y-42246D01*
X68940Y-42273D01*
X68935Y-42300D01*
X68935Y-43125D01*
X65650Y-43125D01*
X65650Y-35600D01*
X65609Y-35393D01*
X65492Y-35218D01*
X65317Y-35101D01*
X65311Y-35100D01*
X65317Y-35098D01*
X65492Y-34981D01*
X65609Y-34806D01*
X65650Y-34600D01*
X65609Y-34393D01*
X65492Y-34218D01*
X65317Y-34101D01*
X65110Y-34060D01*
X65089Y-34060D01*
X64882Y-34101D01*
X64707Y-34218D01*
X64600Y-34379D01*
X64492Y-34218D01*
X64317Y-34101D01*
X64110Y-34060D01*
X64089Y-34060D01*
X63882Y-34101D01*
X63850Y-34123D01*
X63850Y-33744D01*
X63896Y-33698D01*
X63949Y-33569D01*
X63950Y-33430D01*
X63896Y-33302D01*
X63798Y-33203D01*
X63669Y-33150D01*
X63530Y-33149D01*
X63402Y-33203D01*
X63303Y-33301D01*
X63250Y-33430D01*
X63249Y-33569D01*
X63303Y-33698D01*
X63350Y-33744D01*
X63350Y-34123D01*
X63317Y-34101D01*
X63110Y-34060D01*
X63089Y-34060D01*
X62882Y-34101D01*
X62707Y-34218D01*
X62600Y-34379D01*
X62492Y-34218D01*
X62400Y-34156D01*
X62400Y-32465D01*
X62438Y-32426D01*
X62499Y-32279D01*
X62500Y-32120D01*
X62439Y-31973D01*
X62326Y-31861D01*
X62179Y-31800D01*
X62020Y-31799D01*
X61873Y-31860D01*
X61761Y-31973D01*
X61700Y-32120D01*
X61699Y-32279D01*
X61760Y-32426D01*
X61800Y-32465D01*
X61800Y-34156D01*
X61707Y-34218D01*
X61590Y-34393D01*
X61549Y-34600D01*
X61590Y-34806D01*
X61707Y-34981D01*
X61749Y-35010D01*
X61710Y-35010D01*
X61618Y-35048D01*
X61548Y-35118D01*
X61510Y-35210D01*
X61510Y-35309D01*
X61510Y-35487D01*
X61572Y-35550D01*
X62050Y-35550D01*
X62050Y-35542D01*
X62150Y-35542D01*
X62150Y-35550D01*
X62157Y-35550D01*
X62157Y-35650D01*
X62150Y-35650D01*
X62150Y-36127D01*
X62212Y-36190D01*
X62489Y-36190D01*
X62581Y-36151D01*
X62651Y-36081D01*
X62690Y-35989D01*
X62690Y-35955D01*
X62707Y-35981D01*
X62882Y-36098D01*
X63089Y-36140D01*
X63110Y-36140D01*
X63317Y-36098D01*
X63492Y-35981D01*
X63600Y-35820D01*
X63707Y-35981D01*
X63882Y-36098D01*
X64089Y-36140D01*
X64110Y-36140D01*
X64317Y-36098D01*
X64350Y-36076D01*
X64350Y-36196D01*
X64096Y-36449D01*
X64030Y-36449D01*
X63902Y-36503D01*
X63803Y-36601D01*
X63750Y-36730D01*
X63749Y-36869D01*
X63803Y-36998D01*
X63901Y-37096D01*
X64030Y-37149D01*
X64169Y-37150D01*
X64298Y-37096D01*
X64396Y-36998D01*
X64449Y-36869D01*
X64449Y-36803D01*
X64776Y-36476D01*
X64830Y-36395D01*
X64850Y-36300D01*
X64850Y-36076D01*
X64882Y-36098D01*
X65089Y-36140D01*
X65110Y-36140D01*
X65317Y-36098D01*
X65492Y-35981D01*
X65609Y-35806D01*
X65650Y-35600D01*
X65650Y-43125D01*
X62050Y-43125D01*
X62050Y-36127D01*
X62050Y-35650D01*
X61572Y-35650D01*
X61510Y-35712D01*
X61510Y-35890D01*
X61510Y-35989D01*
X61548Y-36081D01*
X61618Y-36151D01*
X61710Y-36190D01*
X61987Y-36190D01*
X62050Y-36127D01*
X62050Y-43125D01*
X55050Y-43125D01*
X55050Y-31530D01*
X54996Y-31402D01*
X54898Y-31303D01*
X54769Y-31250D01*
X54630Y-31249D01*
X54502Y-31303D01*
X54449Y-31355D01*
X54398Y-31303D01*
X54269Y-31250D01*
X54130Y-31249D01*
X54002Y-31303D01*
X53903Y-31401D01*
X53850Y-31530D01*
X53850Y-31596D01*
X53396Y-32049D01*
X53330Y-32049D01*
X53202Y-32103D01*
X53103Y-32201D01*
X53050Y-32330D01*
X53049Y-32469D01*
X53103Y-32598D01*
X53201Y-32696D01*
X53330Y-32749D01*
X53469Y-32750D01*
X53598Y-32696D01*
X53650Y-32644D01*
X53701Y-32696D01*
X53830Y-32749D01*
X53969Y-32750D01*
X54098Y-32696D01*
X54196Y-32598D01*
X54249Y-32469D01*
X54249Y-32403D01*
X54703Y-31950D01*
X54769Y-31950D01*
X54898Y-31896D01*
X54996Y-31798D01*
X55049Y-31669D01*
X55050Y-31530D01*
X55050Y-43125D01*
X54632Y-43125D01*
X54632Y-42141D01*
X54632Y-41858D01*
X54631Y-41852D01*
X54531Y-41644D01*
X54359Y-41491D01*
X54313Y-41475D01*
X54453Y-41381D01*
X54570Y-41206D01*
X54611Y-41000D01*
X54570Y-40793D01*
X54453Y-40618D01*
X54278Y-40501D01*
X54272Y-40500D01*
X54278Y-40498D01*
X54453Y-40381D01*
X54570Y-40206D01*
X54611Y-40000D01*
X54570Y-39793D01*
X54453Y-39618D01*
X54336Y-39540D01*
X54439Y-39540D01*
X54513Y-39509D01*
X54569Y-39453D01*
X54600Y-39379D01*
X54600Y-39300D01*
X54600Y-38620D01*
X54569Y-38546D01*
X54513Y-38490D01*
X54439Y-38460D01*
X54360Y-38460D01*
X53560Y-38460D01*
X53486Y-38490D01*
X53430Y-38546D01*
X53400Y-38620D01*
X53400Y-38699D01*
X53400Y-39379D01*
X53430Y-39453D01*
X53486Y-39509D01*
X53560Y-39540D01*
X53639Y-39540D01*
X53663Y-39540D01*
X53546Y-39618D01*
X53429Y-39793D01*
X53388Y-40000D01*
X53429Y-40206D01*
X53546Y-40381D01*
X53721Y-40498D01*
X53727Y-40500D01*
X53721Y-40501D01*
X53546Y-40618D01*
X53429Y-40793D01*
X53388Y-41000D01*
X53429Y-41206D01*
X53546Y-41381D01*
X53686Y-41475D01*
X53640Y-41491D01*
X53468Y-41644D01*
X53368Y-41852D01*
X53367Y-41858D01*
X53414Y-41950D01*
X53950Y-41950D01*
X53950Y-41942D01*
X54050Y-41942D01*
X54050Y-41950D01*
X54585Y-41950D01*
X54632Y-41858D01*
X54632Y-42141D01*
X54585Y-42050D01*
X54050Y-42050D01*
X54050Y-42527D01*
X54142Y-42584D01*
X54359Y-42508D01*
X54531Y-42355D01*
X54631Y-42147D01*
X54632Y-42141D01*
X54632Y-43125D01*
X53950Y-43125D01*
X53950Y-42527D01*
X53950Y-42050D01*
X53414Y-42050D01*
X53367Y-42141D01*
X53368Y-42147D01*
X53468Y-42355D01*
X53640Y-42508D01*
X53857Y-42584D01*
X53950Y-42527D01*
X53950Y-43125D01*
X51250Y-43125D01*
X51250Y-31003D01*
X52753Y-29499D01*
X52879Y-29500D01*
X53026Y-29439D01*
X53138Y-29326D01*
X53199Y-29179D01*
X53200Y-29020D01*
X53139Y-28873D01*
X53026Y-28761D01*
X52879Y-28700D01*
X52720Y-28699D01*
X52573Y-28760D01*
X52461Y-28873D01*
X52400Y-29020D01*
X52399Y-29146D01*
X51250Y-30296D01*
X51250Y-25275D01*
X57604Y-25275D01*
X60779Y-28450D01*
X72525Y-28450D01*
X72525Y-43125D01*
X72525Y-43125D01*
G37*
G54D18*
X72525Y-43125D02*
X71365Y-43125D01*
X71365Y-42300D01*
X71359Y-42273D01*
X71359Y-42246D01*
X71288Y-41886D01*
X71288Y-41886D01*
X71247Y-41787D01*
X71247Y-41787D01*
X71172Y-41676D01*
X71172Y-35341D01*
X71172Y-35058D01*
X71075Y-34850D01*
X70905Y-34695D01*
X70857Y-34675D01*
X70981Y-34592D01*
X71098Y-34417D01*
X71140Y-34210D01*
X71140Y-34189D01*
X71098Y-33982D01*
X70981Y-33807D01*
X70820Y-33700D01*
X70981Y-33592D01*
X71098Y-33417D01*
X71140Y-33210D01*
X71140Y-33189D01*
X71098Y-32982D01*
X70981Y-32807D01*
X70806Y-32690D01*
X70600Y-32649D01*
X70393Y-32690D01*
X70218Y-32807D01*
X70140Y-32924D01*
X70140Y-32820D01*
X70109Y-32746D01*
X70053Y-32690D01*
X69979Y-32660D01*
X69900Y-32660D01*
X69220Y-32660D01*
X69146Y-32690D01*
X69090Y-32746D01*
X69060Y-32820D01*
X69060Y-32899D01*
X69060Y-33579D01*
X69090Y-33653D01*
X69146Y-33709D01*
X69220Y-33740D01*
X69299Y-33740D01*
X69319Y-33740D01*
X69218Y-33807D01*
X69101Y-33982D01*
X69060Y-34189D01*
X69060Y-34210D01*
X69101Y-34417D01*
X69218Y-34592D01*
X69379Y-34700D01*
X69218Y-34807D01*
X69101Y-34982D01*
X69060Y-35189D01*
X69060Y-35210D01*
X69101Y-35417D01*
X69218Y-35592D01*
X69393Y-35709D01*
X69600Y-35750D01*
X69806Y-35709D01*
X69981Y-35592D01*
X70077Y-35449D01*
X70124Y-35549D01*
X70294Y-35704D01*
X70458Y-35772D01*
X70550Y-35725D01*
X70550Y-35250D01*
X70542Y-35250D01*
X70542Y-35150D01*
X70550Y-35150D01*
X70550Y-35142D01*
X70650Y-35142D01*
X70650Y-35150D01*
X71125Y-35150D01*
X71172Y-35058D01*
X71172Y-35341D01*
X71125Y-35250D01*
X70650Y-35250D01*
X70650Y-35725D01*
X70741Y-35772D01*
X70905Y-35704D01*
X71075Y-35549D01*
X71172Y-35341D01*
X71172Y-41676D01*
X71043Y-41482D01*
X70967Y-41406D01*
X70967Y-41406D01*
X70662Y-41202D01*
X70662Y-41202D01*
X70563Y-41161D01*
X70203Y-41090D01*
X70096Y-41090D01*
X70096Y-41090D01*
X69736Y-41161D01*
X69637Y-41202D01*
X69637Y-41202D01*
X69332Y-41406D01*
X69256Y-41482D01*
X69052Y-41787D01*
X69052Y-41787D01*
X69011Y-41886D01*
X68940Y-42246D01*
X68940Y-42273D01*
X68935Y-42300D01*
X68935Y-43125D01*
X65650Y-43125D01*
X65650Y-35600D01*
X65609Y-35393D01*
X65492Y-35218D01*
X65317Y-35101D01*
X65311Y-35100D01*
X65317Y-35098D01*
X65492Y-34981D01*
X65609Y-34806D01*
X65650Y-34600D01*
X65609Y-34393D01*
X65492Y-34218D01*
X65317Y-34101D01*
X65110Y-34060D01*
X65089Y-34060D01*
X64882Y-34101D01*
X64707Y-34218D01*
X64600Y-34379D01*
X64492Y-34218D01*
X64317Y-34101D01*
X64110Y-34060D01*
X64089Y-34060D01*
X63882Y-34101D01*
X63850Y-34123D01*
X63850Y-33744D01*
X63896Y-33698D01*
X63949Y-33569D01*
X63950Y-33430D01*
X63896Y-33302D01*
X63798Y-33203D01*
X63669Y-33150D01*
X63530Y-33149D01*
X63402Y-33203D01*
X63303Y-33301D01*
X63250Y-33430D01*
X63249Y-33569D01*
X63303Y-33698D01*
X63350Y-33744D01*
X63350Y-34123D01*
X63317Y-34101D01*
X63110Y-34060D01*
X63089Y-34060D01*
X62882Y-34101D01*
X62707Y-34218D01*
X62600Y-34379D01*
X62492Y-34218D01*
X62400Y-34156D01*
X62400Y-32465D01*
X62438Y-32426D01*
X62499Y-32279D01*
X62500Y-32120D01*
X62439Y-31973D01*
X62326Y-31861D01*
X62179Y-31800D01*
X62020Y-31799D01*
X61873Y-31860D01*
X61761Y-31973D01*
X61700Y-32120D01*
X61699Y-32279D01*
X61760Y-32426D01*
X61800Y-32465D01*
X61800Y-34156D01*
X61707Y-34218D01*
X61590Y-34393D01*
X61549Y-34600D01*
X61590Y-34806D01*
X61707Y-34981D01*
X61749Y-35010D01*
X61710Y-35010D01*
X61618Y-35048D01*
X61548Y-35118D01*
X61510Y-35210D01*
X61510Y-35309D01*
X61510Y-35487D01*
X61572Y-35550D01*
X62050Y-35550D01*
X62050Y-35542D01*
X62150Y-35542D01*
X62150Y-35550D01*
X62157Y-35550D01*
X62157Y-35650D01*
X62150Y-35650D01*
X62150Y-36127D01*
X62212Y-36190D01*
X62489Y-36190D01*
X62581Y-36151D01*
X62651Y-36081D01*
X62690Y-35989D01*
X62690Y-35955D01*
X62707Y-35981D01*
X62882Y-36098D01*
X63089Y-36140D01*
X63110Y-36140D01*
X63317Y-36098D01*
X63492Y-35981D01*
X63600Y-35820D01*
X63707Y-35981D01*
X63882Y-36098D01*
X64089Y-36140D01*
X64110Y-36140D01*
X64317Y-36098D01*
X64350Y-36076D01*
X64350Y-36196D01*
X64096Y-36449D01*
X64030Y-36449D01*
X63902Y-36503D01*
X63803Y-36601D01*
X63750Y-36730D01*
X63749Y-36869D01*
X63803Y-36998D01*
X63901Y-37096D01*
X64030Y-37149D01*
X64169Y-37150D01*
X64298Y-37096D01*
X64396Y-36998D01*
X64449Y-36869D01*
X64449Y-36803D01*
X64776Y-36476D01*
X64830Y-36395D01*
X64850Y-36300D01*
X64850Y-36076D01*
X64882Y-36098D01*
X65089Y-36140D01*
X65110Y-36140D01*
X65317Y-36098D01*
X65492Y-35981D01*
X65609Y-35806D01*
X65650Y-35600D01*
X65650Y-43125D01*
X62050Y-43125D01*
X62050Y-36127D01*
X62050Y-35650D01*
X61572Y-35650D01*
X61510Y-35712D01*
X61510Y-35890D01*
X61510Y-35989D01*
X61548Y-36081D01*
X61618Y-36151D01*
X61710Y-36190D01*
X61987Y-36190D01*
X62050Y-36127D01*
X62050Y-43125D01*
X55050Y-43125D01*
X55050Y-31530D01*
X54996Y-31402D01*
X54898Y-31303D01*
X54769Y-31250D01*
X54630Y-31249D01*
X54502Y-31303D01*
X54449Y-31355D01*
X54398Y-31303D01*
X54269Y-31250D01*
X54130Y-31249D01*
X54002Y-31303D01*
X53903Y-31401D01*
X53850Y-31530D01*
X53850Y-31596D01*
X53396Y-32049D01*
X53330Y-32049D01*
X53202Y-32103D01*
X53103Y-32201D01*
X53050Y-32330D01*
X53049Y-32469D01*
X53103Y-32598D01*
X53201Y-32696D01*
X53330Y-32749D01*
X53469Y-32750D01*
X53598Y-32696D01*
X53650Y-32644D01*
X53701Y-32696D01*
X53830Y-32749D01*
X53969Y-32750D01*
X54098Y-32696D01*
X54196Y-32598D01*
X54249Y-32469D01*
X54249Y-32403D01*
X54703Y-31950D01*
X54769Y-31950D01*
X54898Y-31896D01*
X54996Y-31798D01*
X55049Y-31669D01*
X55050Y-31530D01*
X55050Y-43125D01*
X54632Y-43125D01*
X54632Y-42141D01*
X54632Y-41858D01*
X54631Y-41852D01*
X54531Y-41644D01*
X54359Y-41491D01*
X54313Y-41475D01*
X54453Y-41381D01*
X54570Y-41206D01*
X54611Y-41000D01*
X54570Y-40793D01*
X54453Y-40618D01*
X54278Y-40501D01*
X54272Y-40500D01*
X54278Y-40498D01*
X54453Y-40381D01*
X54570Y-40206D01*
X54611Y-40000D01*
X54570Y-39793D01*
X54453Y-39618D01*
X54336Y-39540D01*
X54439Y-39540D01*
X54513Y-39509D01*
X54569Y-39453D01*
X54600Y-39379D01*
X54600Y-39300D01*
X54600Y-38620D01*
X54569Y-38546D01*
X54513Y-38490D01*
X54439Y-38460D01*
X54360Y-38460D01*
X53560Y-38460D01*
X53486Y-38490D01*
X53430Y-38546D01*
X53400Y-38620D01*
X53400Y-38699D01*
X53400Y-39379D01*
X53430Y-39453D01*
X53486Y-39509D01*
X53560Y-39540D01*
X53639Y-39540D01*
X53663Y-39540D01*
X53546Y-39618D01*
X53429Y-39793D01*
X53388Y-40000D01*
X53429Y-40206D01*
X53546Y-40381D01*
X53721Y-40498D01*
X53727Y-40500D01*
X53721Y-40501D01*
X53546Y-40618D01*
X53429Y-40793D01*
X53388Y-41000D01*
X53429Y-41206D01*
X53546Y-41381D01*
X53686Y-41475D01*
X53640Y-41491D01*
X53468Y-41644D01*
X53368Y-41852D01*
X53367Y-41858D01*
X53414Y-41950D01*
X53950Y-41950D01*
X53950Y-41942D01*
X54050Y-41942D01*
X54050Y-41950D01*
X54585Y-41950D01*
X54632Y-41858D01*
X54632Y-42141D01*
X54585Y-42050D01*
X54050Y-42050D01*
X54050Y-42527D01*
X54142Y-42584D01*
X54359Y-42508D01*
X54531Y-42355D01*
X54631Y-42147D01*
X54632Y-42141D01*
X54632Y-43125D01*
X53950Y-43125D01*
X53950Y-42527D01*
X53950Y-42050D01*
X53414Y-42050D01*
X53367Y-42141D01*
X53368Y-42147D01*
X53468Y-42355D01*
X53640Y-42508D01*
X53857Y-42584D01*
X53950Y-42527D01*
X53950Y-43125D01*
X51250Y-43125D01*
X51250Y-31003D01*
X52753Y-29499D01*
X52879Y-29500D01*
X53026Y-29439D01*
X53138Y-29326D01*
X53199Y-29179D01*
X53200Y-29020D01*
X53139Y-28873D01*
X53026Y-28761D01*
X52879Y-28700D01*
X52720Y-28699D01*
X52573Y-28760D01*
X52461Y-28873D01*
X52400Y-29020D01*
X52399Y-29146D01*
X51250Y-30296D01*
X51250Y-25275D01*
X57604Y-25275D01*
X60779Y-28450D01*
X72525Y-28450D01*
X72525Y-43125D01*
G54D10*
G36*
X50950Y-38350D02*
X50450Y-38350D01*
X50450Y-38268D01*
X50450Y-37050D01*
X50450Y-36950D01*
X50450Y-35731D01*
X50334Y-35685D01*
X50262Y-35704D01*
X50010Y-35849D01*
X49833Y-36079D01*
X49757Y-36359D01*
X49757Y-36950D01*
X50450Y-36950D01*
X50450Y-37050D01*
X49757Y-37050D01*
X49757Y-37640D01*
X49833Y-37920D01*
X50010Y-38150D01*
X50262Y-38295D01*
X50334Y-38314D01*
X50450Y-38268D01*
X50450Y-38350D01*
X47750Y-38350D01*
X47750Y-34620D01*
X47689Y-34473D01*
X47650Y-34434D01*
X47650Y-34065D01*
X47688Y-34026D01*
X47749Y-33879D01*
X47750Y-33720D01*
X47689Y-33573D01*
X47576Y-33461D01*
X47429Y-33400D01*
X47270Y-33399D01*
X47123Y-33460D01*
X47011Y-33573D01*
X46950Y-33720D01*
X46949Y-33879D01*
X47010Y-34026D01*
X47050Y-34065D01*
X47050Y-34434D01*
X47011Y-34473D01*
X46950Y-34620D01*
X46949Y-34779D01*
X47010Y-34926D01*
X47123Y-35038D01*
X47270Y-35099D01*
X47429Y-35100D01*
X47576Y-35039D01*
X47688Y-34926D01*
X47749Y-34779D01*
X47750Y-34620D01*
X47750Y-38350D01*
X45275Y-38350D01*
X45275Y-30050D01*
X47450Y-30050D01*
X47450Y-32550D01*
X49150Y-32550D01*
X49150Y-30050D01*
X50950Y-30050D01*
X50950Y-30268D01*
X50764Y-30144D01*
X50500Y-30092D01*
X50235Y-30144D01*
X50010Y-30294D01*
X49860Y-30519D01*
X49807Y-30784D01*
X49807Y-32015D01*
X49860Y-32280D01*
X50010Y-32505D01*
X50235Y-32655D01*
X50500Y-32707D01*
X50764Y-32655D01*
X50950Y-32531D01*
X50950Y-35826D01*
X50737Y-35704D01*
X50665Y-35685D01*
X50550Y-35731D01*
X50550Y-36950D01*
X50557Y-36950D01*
X50557Y-37050D01*
X50550Y-37050D01*
X50550Y-38268D01*
X50665Y-38314D01*
X50737Y-38295D01*
X50950Y-38173D01*
X50950Y-38350D01*
X50950Y-38350D01*
G37*
G54D18*
X50950Y-38350D02*
X50450Y-38350D01*
X50450Y-38268D01*
X50450Y-37050D01*
X50450Y-36950D01*
X50450Y-35731D01*
X50334Y-35685D01*
X50262Y-35704D01*
X50010Y-35849D01*
X49833Y-36079D01*
X49757Y-36359D01*
X49757Y-36950D01*
X50450Y-36950D01*
X50450Y-37050D01*
X49757Y-37050D01*
X49757Y-37640D01*
X49833Y-37920D01*
X50010Y-38150D01*
X50262Y-38295D01*
X50334Y-38314D01*
X50450Y-38268D01*
X50450Y-38350D01*
X47750Y-38350D01*
X47750Y-34620D01*
X47689Y-34473D01*
X47650Y-34434D01*
X47650Y-34065D01*
X47688Y-34026D01*
X47749Y-33879D01*
X47750Y-33720D01*
X47689Y-33573D01*
X47576Y-33461D01*
X47429Y-33400D01*
X47270Y-33399D01*
X47123Y-33460D01*
X47011Y-33573D01*
X46950Y-33720D01*
X46949Y-33879D01*
X47010Y-34026D01*
X47050Y-34065D01*
X47050Y-34434D01*
X47011Y-34473D01*
X46950Y-34620D01*
X46949Y-34779D01*
X47010Y-34926D01*
X47123Y-35038D01*
X47270Y-35099D01*
X47429Y-35100D01*
X47576Y-35039D01*
X47688Y-34926D01*
X47749Y-34779D01*
X47750Y-34620D01*
X47750Y-38350D01*
X45275Y-38350D01*
X45275Y-30050D01*
X47450Y-30050D01*
X47450Y-32550D01*
X49150Y-32550D01*
X49150Y-30050D01*
X50950Y-30050D01*
X50950Y-30268D01*
X50764Y-30144D01*
X50500Y-30092D01*
X50235Y-30144D01*
X50010Y-30294D01*
X49860Y-30519D01*
X49807Y-30784D01*
X49807Y-32015D01*
X49860Y-32280D01*
X50010Y-32505D01*
X50235Y-32655D01*
X50500Y-32707D01*
X50764Y-32655D01*
X50950Y-32531D01*
X50950Y-35826D01*
X50737Y-35704D01*
X50665Y-35685D01*
X50550Y-35731D01*
X50550Y-36950D01*
X50557Y-36950D01*
X50557Y-37050D01*
X50550Y-37050D01*
X50550Y-38268D01*
X50665Y-38314D01*
X50737Y-38295D01*
X50950Y-38173D01*
X50950Y-38350D01*
M02*
