%FSLAX34Y34*%
G04 Gerber Fmt 3.4, Leading zero omitted, Abs format*
G04 (created by PCBNEW (2014-03-23 BZR 4768)-product) date Wed 26 Mar 2014 09:50:02 PM CET*
%MOIN*%
G01*
G70*
G90*
G04 APERTURE LIST*
%ADD10C,0.006000*%
%ADD11C,0.015000*%
%ADD12C,0.009843*%
%ADD13C,0.005000*%
%ADD14C,0.003900*%
%ADD15C,0.008000*%
%ADD16C,0.010000*%
%ADD17C,0.005906*%
%ADD18C,0.004000*%
%ADD19C,0.004300*%
%ADD20O,0.118425X0.236535*%
%ADD21R,0.100000X0.080000*%
%ADD22R,0.075000X0.055000*%
%ADD23R,0.055000X0.075000*%
%ADD24R,0.040000X0.065000*%
%ADD25R,0.051496X0.043622*%
%ADD26R,0.061339X0.043622*%
%ADD27R,0.236500X0.098700*%
%ADD28R,0.100000X0.088000*%
%ADD29O,0.100000X0.088000*%
%ADD30R,0.088000X0.088000*%
%ADD31O,0.088000X0.088000*%
G04 APERTURE END LIST*
G54D10*
G54D11*
X68980Y-32400D02*
G75*
G03X68980Y-32400I-180J0D01*
G74*
G01*
G54D12*
X49760Y-26475D02*
X49760Y-26104D01*
X49735Y-26036D01*
X49686Y-26002D01*
X49589Y-26002D01*
X49540Y-26036D01*
X49760Y-26441D02*
X49711Y-26475D01*
X49589Y-26475D01*
X49540Y-26441D01*
X49516Y-26374D01*
X49516Y-26306D01*
X49540Y-26239D01*
X49589Y-26205D01*
X49711Y-26205D01*
X49760Y-26171D01*
X49930Y-26002D02*
X50125Y-26002D01*
X50003Y-25766D02*
X50003Y-26374D01*
X50028Y-26441D01*
X50076Y-26475D01*
X50125Y-26475D01*
X50296Y-26475D02*
X50296Y-25766D01*
X50296Y-26036D02*
X50344Y-26002D01*
X50442Y-26002D01*
X50491Y-26036D01*
X50515Y-26070D01*
X50539Y-26137D01*
X50539Y-26340D01*
X50515Y-26407D01*
X50491Y-26441D01*
X50442Y-26475D01*
X50344Y-26475D01*
X50296Y-26441D01*
X50759Y-26475D02*
X50759Y-26002D01*
X50759Y-26137D02*
X50783Y-26070D01*
X50808Y-26036D01*
X50856Y-26002D01*
X50905Y-26002D01*
X51295Y-26475D02*
X51295Y-26104D01*
X51271Y-26036D01*
X51222Y-26002D01*
X51124Y-26002D01*
X51076Y-26036D01*
X51295Y-26441D02*
X51246Y-26475D01*
X51124Y-26475D01*
X51076Y-26441D01*
X51051Y-26374D01*
X51051Y-26306D01*
X51076Y-26239D01*
X51124Y-26205D01*
X51246Y-26205D01*
X51295Y-26171D01*
X51514Y-26441D02*
X51563Y-26475D01*
X51661Y-26475D01*
X51709Y-26441D01*
X51734Y-26374D01*
X51734Y-26340D01*
X51709Y-26272D01*
X51661Y-26239D01*
X51587Y-26239D01*
X51539Y-26205D01*
X51514Y-26137D01*
X51514Y-26104D01*
X51539Y-26036D01*
X51587Y-26002D01*
X51661Y-26002D01*
X51709Y-26036D01*
X51953Y-26475D02*
X51953Y-25766D01*
X52002Y-26205D02*
X52148Y-26475D01*
X52148Y-26002D02*
X51953Y-26272D01*
X52392Y-25766D02*
X52343Y-25901D01*
X52587Y-26441D02*
X52635Y-26475D01*
X52733Y-26475D01*
X52782Y-26441D01*
X52806Y-26374D01*
X52806Y-26340D01*
X52782Y-26272D01*
X52733Y-26239D01*
X52660Y-26239D01*
X52611Y-26205D01*
X52587Y-26137D01*
X52587Y-26104D01*
X52611Y-26036D01*
X52660Y-26002D01*
X52733Y-26002D01*
X52782Y-26036D01*
X53391Y-26441D02*
X53464Y-26475D01*
X53586Y-26475D01*
X53635Y-26441D01*
X53659Y-26407D01*
X53683Y-26340D01*
X53683Y-26272D01*
X53659Y-26205D01*
X53635Y-26171D01*
X53586Y-26137D01*
X53488Y-26104D01*
X53440Y-26070D01*
X53415Y-26036D01*
X53391Y-25969D01*
X53391Y-25901D01*
X53415Y-25834D01*
X53440Y-25800D01*
X53488Y-25766D01*
X53610Y-25766D01*
X53683Y-25800D01*
X54098Y-26441D02*
X54049Y-26475D01*
X53952Y-26475D01*
X53903Y-26441D01*
X53878Y-26374D01*
X53878Y-26104D01*
X53903Y-26036D01*
X53952Y-26002D01*
X54049Y-26002D01*
X54098Y-26036D01*
X54122Y-26104D01*
X54122Y-26171D01*
X53878Y-26239D01*
X54341Y-26002D02*
X54341Y-26475D01*
X54341Y-26070D02*
X54366Y-26036D01*
X54415Y-26002D01*
X54488Y-26002D01*
X54536Y-26036D01*
X54561Y-26104D01*
X54561Y-26475D01*
X54780Y-26441D02*
X54829Y-26475D01*
X54926Y-26475D01*
X54975Y-26441D01*
X55000Y-26374D01*
X55000Y-26340D01*
X54975Y-26272D01*
X54926Y-26239D01*
X54853Y-26239D01*
X54805Y-26205D01*
X54780Y-26137D01*
X54780Y-26104D01*
X54805Y-26036D01*
X54853Y-26002D01*
X54926Y-26002D01*
X54975Y-26036D01*
X55292Y-26475D02*
X55243Y-26441D01*
X55219Y-26407D01*
X55194Y-26340D01*
X55194Y-26137D01*
X55219Y-26070D01*
X55243Y-26036D01*
X55292Y-26002D01*
X55365Y-26002D01*
X55414Y-26036D01*
X55438Y-26070D01*
X55463Y-26137D01*
X55463Y-26340D01*
X55438Y-26407D01*
X55414Y-26441D01*
X55365Y-26475D01*
X55292Y-26475D01*
X55682Y-26475D02*
X55682Y-26002D01*
X55682Y-26137D02*
X55706Y-26070D01*
X55731Y-26036D01*
X55779Y-26002D01*
X55828Y-26002D01*
X56389Y-26475D02*
X56389Y-25766D01*
X56681Y-26475D01*
X56681Y-25766D01*
X56998Y-26475D02*
X56949Y-26441D01*
X56925Y-26407D01*
X56901Y-26340D01*
X56901Y-26137D01*
X56925Y-26070D01*
X56949Y-26036D01*
X56998Y-26002D01*
X57071Y-26002D01*
X57120Y-26036D01*
X57144Y-26070D01*
X57169Y-26137D01*
X57169Y-26340D01*
X57144Y-26407D01*
X57120Y-26441D01*
X57071Y-26475D01*
X56998Y-26475D01*
X57607Y-26475D02*
X57607Y-25766D01*
X57607Y-26441D02*
X57559Y-26475D01*
X57461Y-26475D01*
X57412Y-26441D01*
X57388Y-26407D01*
X57364Y-26340D01*
X57364Y-26137D01*
X57388Y-26070D01*
X57412Y-26036D01*
X57461Y-26002D01*
X57559Y-26002D01*
X57607Y-26036D01*
X58046Y-26441D02*
X57997Y-26475D01*
X57900Y-26475D01*
X57851Y-26441D01*
X57827Y-26374D01*
X57827Y-26104D01*
X57851Y-26036D01*
X57900Y-26002D01*
X57997Y-26002D01*
X58046Y-26036D01*
X58070Y-26104D01*
X58070Y-26171D01*
X57827Y-26239D01*
X58265Y-26441D02*
X58314Y-26475D01*
X58412Y-26475D01*
X58460Y-26441D01*
X58485Y-26374D01*
X58485Y-26340D01*
X58460Y-26272D01*
X58412Y-26239D01*
X58338Y-26239D01*
X58290Y-26205D01*
X58265Y-26137D01*
X58265Y-26104D01*
X58290Y-26036D01*
X58338Y-26002D01*
X58412Y-26002D01*
X58460Y-26036D01*
X59045Y-26002D02*
X59167Y-26475D01*
X59289Y-26002D01*
X59752Y-26475D02*
X59460Y-26475D01*
X59606Y-26475D02*
X59606Y-25766D01*
X59557Y-25867D01*
X59508Y-25935D01*
X59460Y-25969D01*
X59971Y-26407D02*
X59996Y-26441D01*
X59971Y-26475D01*
X59947Y-26441D01*
X59971Y-26407D01*
X59971Y-26475D01*
X60313Y-25766D02*
X60361Y-25766D01*
X60410Y-25800D01*
X60434Y-25834D01*
X60459Y-25901D01*
X60483Y-26036D01*
X60483Y-26205D01*
X60459Y-26340D01*
X60434Y-26407D01*
X60410Y-26441D01*
X60361Y-26475D01*
X60313Y-26475D01*
X60264Y-26441D01*
X60239Y-26407D01*
X60215Y-26340D01*
X60191Y-26205D01*
X60191Y-26036D01*
X60215Y-25901D01*
X60239Y-25834D01*
X60264Y-25800D01*
X60313Y-25766D01*
X50015Y-27025D02*
X49967Y-26992D01*
X49869Y-26992D01*
X49820Y-27025D01*
X49772Y-27093D01*
X49747Y-27160D01*
X49747Y-27295D01*
X49772Y-27363D01*
X49820Y-27430D01*
X49869Y-27464D01*
X49967Y-27464D01*
X50015Y-27430D01*
X49918Y-26755D02*
X49796Y-26789D01*
X49674Y-26890D01*
X49601Y-27059D01*
X49577Y-27228D01*
X49601Y-27397D01*
X49674Y-27565D01*
X49796Y-27667D01*
X49918Y-27700D01*
X50040Y-27667D01*
X50162Y-27565D01*
X50235Y-27397D01*
X50259Y-27228D01*
X50235Y-27059D01*
X50162Y-26890D01*
X50040Y-26789D01*
X49918Y-26755D01*
X50844Y-26924D02*
X50868Y-26890D01*
X50917Y-26857D01*
X51039Y-26857D01*
X51088Y-26890D01*
X51112Y-26924D01*
X51137Y-26992D01*
X51137Y-27059D01*
X51112Y-27160D01*
X50820Y-27565D01*
X51137Y-27565D01*
X51453Y-26857D02*
X51502Y-26857D01*
X51551Y-26890D01*
X51575Y-26924D01*
X51600Y-26992D01*
X51624Y-27127D01*
X51624Y-27295D01*
X51600Y-27430D01*
X51575Y-27498D01*
X51551Y-27532D01*
X51502Y-27565D01*
X51453Y-27565D01*
X51405Y-27532D01*
X51380Y-27498D01*
X51356Y-27430D01*
X51332Y-27295D01*
X51332Y-27127D01*
X51356Y-26992D01*
X51380Y-26924D01*
X51405Y-26890D01*
X51453Y-26857D01*
X52111Y-27565D02*
X51819Y-27565D01*
X51965Y-27565D02*
X51965Y-26857D01*
X51916Y-26958D01*
X51868Y-27025D01*
X51819Y-27059D01*
X52550Y-27093D02*
X52550Y-27565D01*
X52428Y-26823D02*
X52306Y-27329D01*
X52623Y-27329D01*
X53428Y-27565D02*
X53428Y-27194D01*
X53403Y-27127D01*
X53354Y-27093D01*
X53257Y-27093D01*
X53208Y-27127D01*
X53428Y-27532D02*
X53379Y-27565D01*
X53257Y-27565D01*
X53208Y-27532D01*
X53184Y-27464D01*
X53184Y-27397D01*
X53208Y-27329D01*
X53257Y-27295D01*
X53379Y-27295D01*
X53428Y-27262D01*
X53598Y-27093D02*
X53793Y-27093D01*
X53671Y-26857D02*
X53671Y-27464D01*
X53696Y-27532D01*
X53744Y-27565D01*
X53793Y-27565D01*
X53964Y-27565D02*
X53964Y-26857D01*
X53964Y-27127D02*
X54012Y-27093D01*
X54110Y-27093D01*
X54159Y-27127D01*
X54183Y-27160D01*
X54207Y-27228D01*
X54207Y-27430D01*
X54183Y-27498D01*
X54159Y-27532D01*
X54110Y-27565D01*
X54012Y-27565D01*
X53964Y-27532D01*
X54427Y-27565D02*
X54427Y-27093D01*
X54427Y-27228D02*
X54451Y-27160D01*
X54476Y-27127D01*
X54524Y-27093D01*
X54573Y-27093D01*
X54963Y-27565D02*
X54963Y-27194D01*
X54939Y-27127D01*
X54890Y-27093D01*
X54792Y-27093D01*
X54744Y-27127D01*
X54963Y-27532D02*
X54914Y-27565D01*
X54792Y-27565D01*
X54744Y-27532D01*
X54719Y-27464D01*
X54719Y-27397D01*
X54744Y-27329D01*
X54792Y-27295D01*
X54914Y-27295D01*
X54963Y-27262D01*
X55182Y-27532D02*
X55231Y-27565D01*
X55329Y-27565D01*
X55377Y-27532D01*
X55402Y-27464D01*
X55402Y-27430D01*
X55377Y-27363D01*
X55329Y-27329D01*
X55255Y-27329D01*
X55207Y-27295D01*
X55182Y-27228D01*
X55182Y-27194D01*
X55207Y-27127D01*
X55255Y-27093D01*
X55329Y-27093D01*
X55377Y-27127D01*
X55621Y-27565D02*
X55621Y-26857D01*
X55670Y-27295D02*
X55816Y-27565D01*
X55816Y-27093D02*
X55621Y-27363D01*
X56352Y-27228D02*
X56328Y-27194D01*
X56279Y-27160D01*
X56230Y-27160D01*
X56182Y-27194D01*
X56157Y-27228D01*
X56133Y-27295D01*
X56133Y-27363D01*
X56157Y-27430D01*
X56182Y-27464D01*
X56230Y-27498D01*
X56279Y-27498D01*
X56328Y-27464D01*
X56352Y-27430D01*
X56352Y-27160D02*
X56352Y-27430D01*
X56377Y-27464D01*
X56401Y-27464D01*
X56450Y-27430D01*
X56474Y-27363D01*
X56474Y-27194D01*
X56425Y-27093D01*
X56352Y-27025D01*
X56255Y-26992D01*
X56157Y-27025D01*
X56084Y-27093D01*
X56035Y-27194D01*
X56011Y-27329D01*
X56035Y-27464D01*
X56084Y-27565D01*
X56157Y-27633D01*
X56255Y-27667D01*
X56352Y-27633D01*
X56425Y-27565D01*
X56913Y-27093D02*
X56913Y-27667D01*
X56888Y-27734D01*
X56864Y-27768D01*
X56815Y-27802D01*
X56742Y-27802D01*
X56693Y-27768D01*
X56913Y-27532D02*
X56864Y-27565D01*
X56766Y-27565D01*
X56718Y-27532D01*
X56693Y-27498D01*
X56669Y-27430D01*
X56669Y-27228D01*
X56693Y-27160D01*
X56718Y-27127D01*
X56766Y-27093D01*
X56864Y-27093D01*
X56913Y-27127D01*
X57156Y-27565D02*
X57156Y-27093D01*
X57156Y-27160D02*
X57181Y-27127D01*
X57230Y-27093D01*
X57303Y-27093D01*
X57351Y-27127D01*
X57376Y-27194D01*
X57376Y-27565D01*
X57376Y-27194D02*
X57400Y-27127D01*
X57449Y-27093D01*
X57522Y-27093D01*
X57571Y-27127D01*
X57595Y-27194D01*
X57595Y-27565D01*
X58058Y-27565D02*
X58058Y-27194D01*
X58034Y-27127D01*
X57985Y-27093D01*
X57888Y-27093D01*
X57839Y-27127D01*
X58058Y-27532D02*
X58009Y-27565D01*
X57888Y-27565D01*
X57839Y-27532D01*
X57814Y-27464D01*
X57814Y-27397D01*
X57839Y-27329D01*
X57888Y-27295D01*
X58009Y-27295D01*
X58058Y-27262D01*
X58302Y-27565D02*
X58302Y-27093D01*
X58302Y-26857D02*
X58278Y-26890D01*
X58302Y-26924D01*
X58326Y-26890D01*
X58302Y-26857D01*
X58302Y-26924D01*
X58619Y-27565D02*
X58570Y-27532D01*
X58546Y-27464D01*
X58546Y-26857D01*
X58814Y-27498D02*
X58838Y-27532D01*
X58814Y-27565D01*
X58789Y-27532D01*
X58814Y-27498D01*
X58814Y-27565D01*
X59277Y-27532D02*
X59228Y-27565D01*
X59131Y-27565D01*
X59082Y-27532D01*
X59057Y-27498D01*
X59033Y-27430D01*
X59033Y-27228D01*
X59057Y-27160D01*
X59082Y-27127D01*
X59131Y-27093D01*
X59228Y-27093D01*
X59277Y-27127D01*
X59569Y-27565D02*
X59520Y-27532D01*
X59496Y-27498D01*
X59472Y-27430D01*
X59472Y-27228D01*
X59496Y-27160D01*
X59520Y-27127D01*
X59569Y-27093D01*
X59642Y-27093D01*
X59691Y-27127D01*
X59715Y-27160D01*
X59740Y-27228D01*
X59740Y-27430D01*
X59715Y-27498D01*
X59691Y-27532D01*
X59642Y-27565D01*
X59569Y-27565D01*
X59959Y-27565D02*
X59959Y-27093D01*
X59959Y-27160D02*
X59984Y-27127D01*
X60032Y-27093D01*
X60105Y-27093D01*
X60154Y-27127D01*
X60179Y-27194D01*
X60179Y-27565D01*
X60179Y-27194D02*
X60203Y-27127D01*
X60252Y-27093D01*
X60325Y-27093D01*
X60374Y-27127D01*
X60398Y-27194D01*
X60398Y-27565D01*
G54D13*
X46750Y-33200D02*
X45850Y-33200D01*
X45850Y-33200D02*
X45850Y-33850D01*
X46750Y-34550D02*
X46750Y-35200D01*
X46750Y-35200D02*
X45850Y-35200D01*
X45850Y-35200D02*
X45850Y-34550D01*
X46750Y-33850D02*
X46750Y-33200D01*
X50950Y-33200D02*
X50050Y-33200D01*
X50050Y-33200D02*
X50050Y-33850D01*
X50950Y-34550D02*
X50950Y-35200D01*
X50950Y-35200D02*
X50050Y-35200D01*
X50050Y-35200D02*
X50050Y-34550D01*
X50950Y-33850D02*
X50950Y-33200D01*
G54D14*
X53150Y-32250D02*
G75*
G03X53150Y-32250I-50J0D01*
G74*
G01*
X53100Y-31800D02*
X53100Y-32200D01*
X53100Y-32200D02*
X52500Y-32200D01*
X52500Y-32200D02*
X52500Y-31800D01*
X52500Y-31400D02*
X52500Y-31000D01*
X52500Y-31000D02*
X53100Y-31000D01*
X53100Y-31000D02*
X53100Y-31400D01*
X58500Y-28800D02*
G75*
G03X58500Y-28800I-50J0D01*
G74*
G01*
X58000Y-28800D02*
X58400Y-28800D01*
X58400Y-28800D02*
X58400Y-29400D01*
X58400Y-29400D02*
X58000Y-29400D01*
X57600Y-29400D02*
X57200Y-29400D01*
X57200Y-29400D02*
X57200Y-28800D01*
X57200Y-28800D02*
X57600Y-28800D01*
X58500Y-34200D02*
G75*
G03X58500Y-34200I-50J0D01*
G74*
G01*
X58000Y-34200D02*
X58400Y-34200D01*
X58400Y-34200D02*
X58400Y-34800D01*
X58400Y-34800D02*
X58000Y-34800D01*
X57600Y-34800D02*
X57200Y-34800D01*
X57200Y-34800D02*
X57200Y-34200D01*
X57200Y-34200D02*
X57600Y-34200D01*
X53200Y-34800D02*
G75*
G03X53200Y-34800I-50J0D01*
G74*
G01*
X53600Y-34800D02*
X53200Y-34800D01*
X53200Y-34800D02*
X53200Y-34200D01*
X53200Y-34200D02*
X53600Y-34200D01*
X54000Y-34200D02*
X54400Y-34200D01*
X54400Y-34200D02*
X54400Y-34800D01*
X54400Y-34800D02*
X54000Y-34800D01*
X60250Y-34450D02*
G75*
G03X60250Y-34450I-50J0D01*
G74*
G01*
X60200Y-34900D02*
X60200Y-34500D01*
X60200Y-34500D02*
X60800Y-34500D01*
X60800Y-34500D02*
X60800Y-34900D01*
X60800Y-35300D02*
X60800Y-35700D01*
X60800Y-35700D02*
X60200Y-35700D01*
X60200Y-35700D02*
X60200Y-35300D01*
X52750Y-42250D02*
G75*
G03X52750Y-42250I-50J0D01*
G74*
G01*
X52700Y-41800D02*
X52700Y-42200D01*
X52700Y-42200D02*
X52100Y-42200D01*
X52100Y-42200D02*
X52100Y-41800D01*
X52100Y-41400D02*
X52100Y-41000D01*
X52100Y-41000D02*
X52700Y-41000D01*
X52700Y-41000D02*
X52700Y-41400D01*
G54D15*
X53900Y-30900D02*
X57700Y-30900D01*
X57700Y-30900D02*
X57700Y-32400D01*
X57700Y-32400D02*
X53900Y-32400D01*
X53900Y-32400D02*
X53900Y-30900D01*
X53900Y-31400D02*
X54200Y-31400D01*
X54200Y-31400D02*
X54200Y-31800D01*
X54200Y-31800D02*
X53900Y-31800D01*
G54D16*
X49067Y-31736D02*
X49067Y-31263D01*
X47532Y-31736D02*
X47532Y-31263D01*
G54D14*
X60500Y-28800D02*
G75*
G03X60500Y-28800I-50J0D01*
G74*
G01*
X60000Y-28800D02*
X60400Y-28800D01*
X60400Y-28800D02*
X60400Y-29400D01*
X60400Y-29400D02*
X60000Y-29400D01*
X59600Y-29400D02*
X59200Y-29400D01*
X59200Y-29400D02*
X59200Y-28800D01*
X59200Y-28800D02*
X59600Y-28800D01*
X55200Y-34500D02*
G75*
G03X55200Y-34500I-50J0D01*
G74*
G01*
X55600Y-34500D02*
X55200Y-34500D01*
X55200Y-34500D02*
X55200Y-33900D01*
X55200Y-33900D02*
X55600Y-33900D01*
X56000Y-33900D02*
X56400Y-33900D01*
X56400Y-33900D02*
X56400Y-34500D01*
X56400Y-34500D02*
X56000Y-34500D01*
X52750Y-40050D02*
G75*
G03X52750Y-40050I-50J0D01*
G74*
G01*
X52700Y-39600D02*
X52700Y-40000D01*
X52700Y-40000D02*
X52100Y-40000D01*
X52100Y-40000D02*
X52100Y-39600D01*
X52100Y-39200D02*
X52100Y-38800D01*
X52100Y-38800D02*
X52700Y-38800D01*
X52700Y-38800D02*
X52700Y-39200D01*
G54D11*
X48636Y-33648D02*
X48163Y-33648D01*
X48163Y-33648D02*
X48163Y-34751D01*
X48163Y-34751D02*
X48636Y-34751D01*
X48636Y-34751D02*
X48636Y-33648D01*
G54D17*
X57750Y-37250D02*
X57750Y-37100D01*
X57750Y-35950D02*
X57750Y-36100D01*
X53850Y-35950D02*
X53850Y-36100D01*
X53850Y-37250D02*
X53850Y-37100D01*
X53550Y-37600D02*
X53550Y-37100D01*
X53550Y-35600D02*
X53550Y-36100D01*
X58050Y-35600D02*
X58050Y-36100D01*
X58050Y-37600D02*
X58050Y-37100D01*
X57750Y-35950D02*
X57500Y-35700D01*
X57500Y-35700D02*
X54100Y-35700D01*
X54100Y-35700D02*
X53850Y-35950D01*
X53850Y-37250D02*
X54100Y-37500D01*
X54100Y-37500D02*
X57500Y-37500D01*
X57500Y-37500D02*
X57750Y-37250D01*
X53550Y-35600D02*
X58050Y-35600D01*
X58050Y-37600D02*
X53550Y-37600D01*
G54D14*
X55200Y-29400D02*
G75*
G03X55200Y-29400I-50J0D01*
G74*
G01*
X55600Y-29400D02*
X55200Y-29400D01*
X55200Y-29400D02*
X55200Y-28800D01*
X55200Y-28800D02*
X55600Y-28800D01*
X56000Y-28800D02*
X56400Y-28800D01*
X56400Y-28800D02*
X56400Y-29400D01*
X56400Y-29400D02*
X56000Y-29400D01*
G54D16*
X55600Y-39500D02*
X54600Y-38500D01*
X55600Y-38500D02*
X54600Y-39500D01*
X55650Y-38950D02*
X57950Y-38950D01*
X57950Y-38950D02*
X57950Y-39050D01*
X57950Y-39050D02*
X55650Y-39050D01*
X55650Y-39050D02*
X55650Y-39000D01*
X55650Y-39000D02*
X57950Y-39000D01*
X54600Y-38900D02*
X54450Y-38900D01*
X54600Y-39100D02*
X54450Y-39100D01*
X54600Y-39900D02*
X54450Y-39900D01*
X54600Y-40100D02*
X54450Y-40100D01*
X54600Y-40900D02*
X54450Y-40900D01*
X54600Y-41100D02*
X54450Y-41100D01*
X54600Y-42100D02*
X54450Y-42100D01*
X54600Y-41900D02*
X54450Y-41900D01*
X54600Y-38500D02*
X55600Y-38500D01*
X54600Y-39500D02*
X55600Y-39500D01*
X54600Y-39500D02*
X54600Y-40500D01*
X54600Y-40500D02*
X55600Y-40500D01*
X55600Y-39900D02*
X58000Y-39900D01*
X58000Y-39900D02*
X58000Y-40100D01*
X58000Y-40100D02*
X55600Y-40100D01*
X55600Y-40500D02*
X55600Y-39500D01*
X55600Y-39500D02*
X55600Y-38500D01*
X58000Y-39100D02*
X55600Y-39100D01*
X58000Y-38900D02*
X58000Y-39100D01*
X55600Y-38900D02*
X58000Y-38900D01*
X54600Y-39500D02*
X55600Y-39500D01*
X54600Y-38500D02*
X54600Y-39500D01*
X54600Y-41500D02*
X55600Y-41500D01*
X54600Y-41500D02*
X54600Y-42500D01*
X54600Y-42500D02*
X55600Y-42500D01*
X55600Y-41900D02*
X58000Y-41900D01*
X58000Y-41900D02*
X58000Y-42100D01*
X58000Y-42100D02*
X55600Y-42100D01*
X55600Y-42500D02*
X55600Y-41500D01*
X55600Y-41500D02*
X55600Y-40500D01*
X58000Y-41100D02*
X55600Y-41100D01*
X58000Y-40900D02*
X58000Y-41100D01*
X55600Y-40900D02*
X58000Y-40900D01*
X54600Y-41500D02*
X55600Y-41500D01*
X54600Y-40500D02*
X54600Y-41500D01*
X54600Y-40500D02*
X55600Y-40500D01*
X70100Y-32700D02*
X70100Y-33700D01*
X70100Y-33700D02*
X69100Y-33700D01*
X69100Y-32700D02*
X69100Y-35700D01*
X69100Y-35700D02*
X71100Y-35700D01*
X71100Y-35700D02*
X71100Y-33700D01*
X69100Y-32700D02*
X70100Y-32700D01*
X71100Y-32700D02*
X70100Y-32700D01*
X71100Y-33700D02*
X71100Y-32700D01*
G54D14*
X54500Y-28800D02*
G75*
G03X54500Y-28800I-50J0D01*
G74*
G01*
X54000Y-28800D02*
X54400Y-28800D01*
X54400Y-28800D02*
X54400Y-29400D01*
X54400Y-29400D02*
X54000Y-29400D01*
X53600Y-29400D02*
X53200Y-29400D01*
X53200Y-29400D02*
X53200Y-28800D01*
X53200Y-28800D02*
X53600Y-28800D01*
G54D16*
X61600Y-36100D02*
X67533Y-36100D01*
X67533Y-36100D02*
X67537Y-25060D01*
X67537Y-25060D02*
X61600Y-25060D01*
X61600Y-25060D02*
X61600Y-36100D01*
X62600Y-36100D02*
X65600Y-36100D01*
X65600Y-36100D02*
X65600Y-34100D01*
X65600Y-34100D02*
X61600Y-34100D01*
X61600Y-34100D02*
X61600Y-35100D01*
X61600Y-36100D02*
X62600Y-36100D01*
X61600Y-35100D02*
X62600Y-35100D01*
X62600Y-35100D02*
X62600Y-36100D01*
X61600Y-36100D02*
X61600Y-35100D01*
G54D11*
X48257Y-39659D02*
X48399Y-40238D01*
X48399Y-40238D02*
X48509Y-39820D01*
X48509Y-39820D02*
X48631Y-40242D01*
X48631Y-40242D02*
X48765Y-39671D01*
X47698Y-39931D02*
X48009Y-39927D01*
X48009Y-39927D02*
X48013Y-39931D01*
X48013Y-39931D02*
X48013Y-39927D01*
X48029Y-39647D02*
X48029Y-40254D01*
X47679Y-39643D02*
X47679Y-40261D01*
X47679Y-40261D02*
X47683Y-40257D01*
X47462Y-39683D02*
X47324Y-39651D01*
X47324Y-39651D02*
X47198Y-39647D01*
X47198Y-39647D02*
X47104Y-39726D01*
X47104Y-39726D02*
X47092Y-39832D01*
X47092Y-39832D02*
X47187Y-39927D01*
X47187Y-39927D02*
X47340Y-39978D01*
X47340Y-39978D02*
X47411Y-40041D01*
X47411Y-40041D02*
X47427Y-40159D01*
X47427Y-40159D02*
X47336Y-40246D01*
X47336Y-40246D02*
X47210Y-40257D01*
X47210Y-40257D02*
X47072Y-40214D01*
X46663Y-39643D02*
X46565Y-39651D01*
X46565Y-39651D02*
X46470Y-39746D01*
X46470Y-39746D02*
X46435Y-39939D01*
X46435Y-39939D02*
X46446Y-40076D01*
X46446Y-40076D02*
X46525Y-40202D01*
X46525Y-40202D02*
X46624Y-40250D01*
X46624Y-40250D02*
X46746Y-40222D01*
X46746Y-40222D02*
X46832Y-40151D01*
X46832Y-40151D02*
X46860Y-39970D01*
X46860Y-39970D02*
X46840Y-39809D01*
X46840Y-39809D02*
X46797Y-39698D01*
X46797Y-39698D02*
X46655Y-39647D01*
X46899Y-38966D02*
X46797Y-39187D01*
X46797Y-39187D02*
X47009Y-39391D01*
X47009Y-39391D02*
X47214Y-39285D01*
X47214Y-39285D02*
X47324Y-39348D01*
X47891Y-39340D02*
X48021Y-39265D01*
X48021Y-39265D02*
X48194Y-39395D01*
X48194Y-39395D02*
X48380Y-39202D01*
X48380Y-39202D02*
X48269Y-39013D01*
X48269Y-39013D02*
X48344Y-38828D01*
X48344Y-38828D02*
X48584Y-38754D01*
X48584Y-38754D02*
X48584Y-38486D01*
X48584Y-38486D02*
X48364Y-38431D01*
X48364Y-38431D02*
X48285Y-38206D01*
X48285Y-38206D02*
X48391Y-38021D01*
X48391Y-38021D02*
X48206Y-37820D01*
X48206Y-37820D02*
X48002Y-37923D01*
X48002Y-37923D02*
X47817Y-37844D01*
X47817Y-37844D02*
X47750Y-37631D01*
X47750Y-37631D02*
X47478Y-37624D01*
X47478Y-37624D02*
X47395Y-37840D01*
X47395Y-37840D02*
X47230Y-37907D01*
X47230Y-37907D02*
X47013Y-37801D01*
X47013Y-37801D02*
X46809Y-38009D01*
X46809Y-38009D02*
X46907Y-38222D01*
X46907Y-38222D02*
X46840Y-38411D01*
X46840Y-38411D02*
X46624Y-38450D01*
X46624Y-38450D02*
X46620Y-38726D01*
X46620Y-38726D02*
X46840Y-38805D01*
X46840Y-38805D02*
X46895Y-38962D01*
X47738Y-38954D02*
X47856Y-38895D01*
X47856Y-38895D02*
X47935Y-38817D01*
X47935Y-38817D02*
X47994Y-38659D01*
X47994Y-38659D02*
X47994Y-38502D01*
X47994Y-38502D02*
X47935Y-38364D01*
X47935Y-38364D02*
X47757Y-38226D01*
X47757Y-38226D02*
X47580Y-38206D01*
X47580Y-38206D02*
X47423Y-38246D01*
X47423Y-38246D02*
X47265Y-38383D01*
X47265Y-38383D02*
X47206Y-38561D01*
X47206Y-38561D02*
X47226Y-38757D01*
X47226Y-38757D02*
X47324Y-38876D01*
X47324Y-38876D02*
X47462Y-38954D01*
X47462Y-38954D02*
X47324Y-39348D01*
X47738Y-38954D02*
X47895Y-39348D01*
G54D18*
X45771Y-34233D02*
X45780Y-34242D01*
X45790Y-34271D01*
X45790Y-34290D01*
X45780Y-34319D01*
X45761Y-34338D01*
X45742Y-34347D01*
X45704Y-34357D01*
X45676Y-34357D01*
X45638Y-34347D01*
X45619Y-34338D01*
X45600Y-34319D01*
X45590Y-34290D01*
X45590Y-34271D01*
X45600Y-34242D01*
X45609Y-34233D01*
X45790Y-34042D02*
X45790Y-34157D01*
X45790Y-34100D02*
X45590Y-34100D01*
X45619Y-34119D01*
X45638Y-34138D01*
X45647Y-34157D01*
X49971Y-34233D02*
X49980Y-34242D01*
X49990Y-34271D01*
X49990Y-34290D01*
X49980Y-34319D01*
X49961Y-34338D01*
X49942Y-34347D01*
X49904Y-34357D01*
X49876Y-34357D01*
X49838Y-34347D01*
X49819Y-34338D01*
X49800Y-34319D01*
X49790Y-34290D01*
X49790Y-34271D01*
X49800Y-34242D01*
X49809Y-34233D01*
X49809Y-34157D02*
X49800Y-34147D01*
X49790Y-34128D01*
X49790Y-34080D01*
X49800Y-34061D01*
X49809Y-34052D01*
X49828Y-34042D01*
X49847Y-34042D01*
X49876Y-34052D01*
X49990Y-34166D01*
X49990Y-34042D01*
G54D19*
X52370Y-31632D02*
X52379Y-31642D01*
X52389Y-31670D01*
X52389Y-31689D01*
X52379Y-31717D01*
X52360Y-31736D01*
X52342Y-31745D01*
X52304Y-31754D01*
X52276Y-31754D01*
X52239Y-31745D01*
X52220Y-31736D01*
X52201Y-31717D01*
X52192Y-31689D01*
X52192Y-31670D01*
X52201Y-31642D01*
X52210Y-31632D01*
X52192Y-31567D02*
X52192Y-31445D01*
X52267Y-31510D01*
X52267Y-31482D01*
X52276Y-31463D01*
X52285Y-31454D01*
X52304Y-31445D01*
X52351Y-31445D01*
X52370Y-31454D01*
X52379Y-31463D01*
X52389Y-31482D01*
X52389Y-31539D01*
X52379Y-31557D01*
X52370Y-31567D01*
X57767Y-28670D02*
X57757Y-28679D01*
X57729Y-28689D01*
X57710Y-28689D01*
X57682Y-28679D01*
X57663Y-28660D01*
X57654Y-28642D01*
X57645Y-28604D01*
X57645Y-28576D01*
X57654Y-28539D01*
X57663Y-28520D01*
X57682Y-28501D01*
X57710Y-28492D01*
X57729Y-28492D01*
X57757Y-28501D01*
X57767Y-28510D01*
X57936Y-28557D02*
X57936Y-28689D01*
X57889Y-28482D02*
X57842Y-28623D01*
X57964Y-28623D01*
X57767Y-35070D02*
X57757Y-35079D01*
X57729Y-35089D01*
X57710Y-35089D01*
X57682Y-35079D01*
X57663Y-35060D01*
X57654Y-35042D01*
X57645Y-35004D01*
X57645Y-34976D01*
X57654Y-34939D01*
X57663Y-34920D01*
X57682Y-34901D01*
X57710Y-34892D01*
X57729Y-34892D01*
X57757Y-34901D01*
X57767Y-34910D01*
X57945Y-34892D02*
X57851Y-34892D01*
X57842Y-34985D01*
X57851Y-34976D01*
X57870Y-34967D01*
X57917Y-34967D01*
X57936Y-34976D01*
X57945Y-34985D01*
X57954Y-35004D01*
X57954Y-35051D01*
X57945Y-35070D01*
X57936Y-35079D01*
X57917Y-35089D01*
X57870Y-35089D01*
X57851Y-35079D01*
X57842Y-35070D01*
X53767Y-35070D02*
X53757Y-35079D01*
X53729Y-35089D01*
X53710Y-35089D01*
X53682Y-35079D01*
X53663Y-35060D01*
X53654Y-35042D01*
X53645Y-35004D01*
X53645Y-34976D01*
X53654Y-34939D01*
X53663Y-34920D01*
X53682Y-34901D01*
X53710Y-34892D01*
X53729Y-34892D01*
X53757Y-34901D01*
X53767Y-34910D01*
X53936Y-34892D02*
X53898Y-34892D01*
X53879Y-34901D01*
X53870Y-34910D01*
X53851Y-34939D01*
X53842Y-34976D01*
X53842Y-35051D01*
X53851Y-35070D01*
X53860Y-35079D01*
X53879Y-35089D01*
X53917Y-35089D01*
X53936Y-35079D01*
X53945Y-35070D01*
X53954Y-35051D01*
X53954Y-35004D01*
X53945Y-34985D01*
X53936Y-34976D01*
X53917Y-34967D01*
X53879Y-34967D01*
X53860Y-34976D01*
X53851Y-34985D01*
X53842Y-35004D01*
X60070Y-35132D02*
X60079Y-35142D01*
X60089Y-35170D01*
X60089Y-35189D01*
X60079Y-35217D01*
X60060Y-35236D01*
X60042Y-35245D01*
X60004Y-35254D01*
X59976Y-35254D01*
X59939Y-35245D01*
X59920Y-35236D01*
X59901Y-35217D01*
X59892Y-35189D01*
X59892Y-35170D01*
X59901Y-35142D01*
X59910Y-35132D01*
X59892Y-35067D02*
X59892Y-34935D01*
X60089Y-35020D01*
X51970Y-41632D02*
X51979Y-41642D01*
X51989Y-41670D01*
X51989Y-41689D01*
X51979Y-41717D01*
X51960Y-41736D01*
X51942Y-41745D01*
X51904Y-41754D01*
X51876Y-41754D01*
X51839Y-41745D01*
X51820Y-41736D01*
X51801Y-41717D01*
X51792Y-41689D01*
X51792Y-41670D01*
X51801Y-41642D01*
X51810Y-41632D01*
X51876Y-41520D02*
X51867Y-41539D01*
X51857Y-41548D01*
X51839Y-41557D01*
X51829Y-41557D01*
X51810Y-41548D01*
X51801Y-41539D01*
X51792Y-41520D01*
X51792Y-41482D01*
X51801Y-41463D01*
X51810Y-41454D01*
X51829Y-41445D01*
X51839Y-41445D01*
X51857Y-41454D01*
X51867Y-41463D01*
X51876Y-41482D01*
X51876Y-41520D01*
X51885Y-41539D01*
X51895Y-41548D01*
X51914Y-41557D01*
X51951Y-41557D01*
X51970Y-41548D01*
X51979Y-41539D01*
X51989Y-41520D01*
X51989Y-41482D01*
X51979Y-41463D01*
X51970Y-41454D01*
X51951Y-41445D01*
X51914Y-41445D01*
X51895Y-41454D01*
X51885Y-41463D01*
X51876Y-41482D01*
G54D18*
X53790Y-31795D02*
X53590Y-31795D01*
X53771Y-31585D02*
X53780Y-31595D01*
X53790Y-31623D01*
X53790Y-31642D01*
X53780Y-31671D01*
X53761Y-31690D01*
X53742Y-31700D01*
X53704Y-31709D01*
X53676Y-31709D01*
X53638Y-31700D01*
X53619Y-31690D01*
X53600Y-31671D01*
X53590Y-31642D01*
X53590Y-31623D01*
X53600Y-31595D01*
X53609Y-31585D01*
X53790Y-31395D02*
X53790Y-31509D01*
X53790Y-31452D02*
X53590Y-31452D01*
X53619Y-31471D01*
X53638Y-31490D01*
X53647Y-31509D01*
X47390Y-31533D02*
X47390Y-31628D01*
X47190Y-31628D01*
X47390Y-31361D02*
X47390Y-31476D01*
X47390Y-31419D02*
X47190Y-31419D01*
X47219Y-31438D01*
X47238Y-31457D01*
X47247Y-31476D01*
G54D19*
X59767Y-28689D02*
X59701Y-28595D01*
X59654Y-28689D02*
X59654Y-28492D01*
X59729Y-28492D01*
X59748Y-28501D01*
X59757Y-28510D01*
X59767Y-28529D01*
X59767Y-28557D01*
X59757Y-28576D01*
X59748Y-28585D01*
X59729Y-28595D01*
X59654Y-28595D01*
X59954Y-28689D02*
X59842Y-28689D01*
X59898Y-28689D02*
X59898Y-28492D01*
X59879Y-28520D01*
X59860Y-28539D01*
X59842Y-28548D01*
X55767Y-33789D02*
X55701Y-33695D01*
X55654Y-33789D02*
X55654Y-33592D01*
X55729Y-33592D01*
X55748Y-33601D01*
X55757Y-33610D01*
X55767Y-33629D01*
X55767Y-33657D01*
X55757Y-33676D01*
X55748Y-33685D01*
X55729Y-33695D01*
X55654Y-33695D01*
X55842Y-33610D02*
X55851Y-33601D01*
X55870Y-33592D01*
X55917Y-33592D01*
X55936Y-33601D01*
X55945Y-33610D01*
X55954Y-33629D01*
X55954Y-33648D01*
X55945Y-33676D01*
X55832Y-33789D01*
X55954Y-33789D01*
X51989Y-39432D02*
X51895Y-39498D01*
X51989Y-39545D02*
X51792Y-39545D01*
X51792Y-39470D01*
X51801Y-39451D01*
X51810Y-39442D01*
X51829Y-39432D01*
X51857Y-39432D01*
X51876Y-39442D01*
X51885Y-39451D01*
X51895Y-39470D01*
X51895Y-39545D01*
X51792Y-39367D02*
X51792Y-39245D01*
X51867Y-39310D01*
X51867Y-39282D01*
X51876Y-39263D01*
X51885Y-39254D01*
X51904Y-39245D01*
X51951Y-39245D01*
X51970Y-39254D01*
X51979Y-39263D01*
X51989Y-39282D01*
X51989Y-39339D01*
X51979Y-39357D01*
X51970Y-39367D01*
G54D18*
X48247Y-33290D02*
X48247Y-33452D01*
X48257Y-33471D01*
X48266Y-33480D01*
X48285Y-33490D01*
X48323Y-33490D01*
X48342Y-33480D01*
X48352Y-33471D01*
X48361Y-33452D01*
X48361Y-33290D01*
X48561Y-33490D02*
X48447Y-33490D01*
X48504Y-33490D02*
X48504Y-33290D01*
X48485Y-33319D01*
X48466Y-33338D01*
X48447Y-33347D01*
X55638Y-35290D02*
X55771Y-35490D01*
X55771Y-35290D02*
X55638Y-35490D01*
X55952Y-35490D02*
X55838Y-35490D01*
X55895Y-35490D02*
X55895Y-35290D01*
X55876Y-35319D01*
X55857Y-35338D01*
X55838Y-35347D01*
G54D19*
X55767Y-28670D02*
X55757Y-28679D01*
X55729Y-28689D01*
X55710Y-28689D01*
X55682Y-28679D01*
X55663Y-28660D01*
X55654Y-28642D01*
X55645Y-28604D01*
X55645Y-28576D01*
X55654Y-28539D01*
X55663Y-28520D01*
X55682Y-28501D01*
X55710Y-28492D01*
X55729Y-28492D01*
X55757Y-28501D01*
X55767Y-28510D01*
X55860Y-28689D02*
X55898Y-28689D01*
X55917Y-28679D01*
X55926Y-28670D01*
X55945Y-28642D01*
X55954Y-28604D01*
X55954Y-28529D01*
X55945Y-28510D01*
X55936Y-28501D01*
X55917Y-28492D01*
X55879Y-28492D01*
X55860Y-28501D01*
X55851Y-28510D01*
X55842Y-28529D01*
X55842Y-28576D01*
X55851Y-28595D01*
X55860Y-28604D01*
X55879Y-28614D01*
X55917Y-28614D01*
X55936Y-28604D01*
X55945Y-28595D01*
X55954Y-28576D01*
X53767Y-28689D02*
X53701Y-28595D01*
X53654Y-28689D02*
X53654Y-28492D01*
X53729Y-28492D01*
X53748Y-28501D01*
X53757Y-28510D01*
X53767Y-28529D01*
X53767Y-28557D01*
X53757Y-28576D01*
X53748Y-28585D01*
X53729Y-28595D01*
X53654Y-28595D01*
X53936Y-28557D02*
X53936Y-28689D01*
X53889Y-28482D02*
X53842Y-28623D01*
X53964Y-28623D01*
%LPC*%
G54D20*
X50500Y-31400D03*
X50500Y-37000D03*
G54D21*
X46300Y-33550D03*
X46300Y-34850D03*
X50500Y-33550D03*
X50500Y-34850D03*
G54D22*
X52800Y-31975D03*
X52800Y-31225D03*
G54D23*
X58175Y-29100D03*
X57425Y-29100D03*
X58175Y-34500D03*
X57425Y-34500D03*
X53425Y-34500D03*
X54175Y-34500D03*
G54D22*
X60500Y-34725D03*
X60500Y-35475D03*
X52400Y-41975D03*
X52400Y-41225D03*
G54D24*
X54300Y-32700D03*
X54800Y-32700D03*
X55300Y-32700D03*
X55800Y-32700D03*
X56300Y-32700D03*
X56800Y-32700D03*
X57300Y-32700D03*
X57300Y-30600D03*
X56800Y-30600D03*
X56300Y-30600D03*
X55800Y-30600D03*
X55300Y-30600D03*
X54800Y-30600D03*
X54300Y-30600D03*
G54D10*
G36*
X48833Y-32603D02*
X47766Y-32603D01*
X47412Y-31931D01*
X49187Y-31931D01*
X48833Y-32603D01*
X48833Y-32603D01*
G37*
G36*
X49187Y-31068D02*
X47412Y-31068D01*
X47766Y-30396D01*
X48833Y-30396D01*
X49187Y-31068D01*
X49187Y-31068D01*
G37*
G54D25*
X47670Y-31913D03*
X48929Y-31913D03*
X47670Y-31086D03*
X48929Y-31086D03*
G54D10*
G36*
X48205Y-32031D02*
X47827Y-32409D01*
X47449Y-32031D01*
X47827Y-31653D01*
X48205Y-32031D01*
X48205Y-32031D01*
G37*
G36*
X49150Y-32031D02*
X48772Y-32409D01*
X48394Y-32031D01*
X48772Y-31653D01*
X49150Y-32031D01*
X49150Y-32031D01*
G37*
G36*
X48205Y-30968D02*
X47827Y-31346D01*
X47449Y-30968D01*
X47827Y-30590D01*
X48205Y-30968D01*
X48205Y-30968D01*
G37*
G36*
X49150Y-30968D02*
X48772Y-31346D01*
X48394Y-30968D01*
X48772Y-30590D01*
X49150Y-30968D01*
X49150Y-30968D01*
G37*
G54D23*
X60175Y-29100D03*
X59425Y-29100D03*
X55425Y-34200D03*
X56175Y-34200D03*
G54D22*
X52400Y-39775D03*
X52400Y-39025D03*
G54D26*
X47868Y-33825D03*
X47868Y-34200D03*
X47868Y-34574D03*
X48931Y-34574D03*
X48931Y-33825D03*
G54D27*
X57650Y-36600D03*
X53950Y-36600D03*
G54D23*
X55425Y-29100D03*
X56175Y-29100D03*
G54D28*
X54000Y-39000D03*
G54D29*
X54000Y-40000D03*
X54000Y-41000D03*
X54000Y-42000D03*
G54D30*
X69600Y-33200D03*
G54D31*
X69600Y-34200D03*
X69600Y-35200D03*
X70600Y-35200D03*
X70600Y-34200D03*
X70600Y-33200D03*
G54D23*
X54175Y-29100D03*
X53425Y-29100D03*
G54D30*
X62100Y-35600D03*
G54D31*
X63100Y-35600D03*
X64100Y-35600D03*
X65100Y-35600D03*
X65100Y-34600D03*
X64100Y-34600D03*
X63100Y-34600D03*
X62100Y-34600D03*
M02*
